<?xml version="1.0" encoding="UTF-8" standalone="no"?>
<svg
   xmlns:dc="http://purl.org/dc/elements/1.1/"
   xmlns:cc="http://creativecommons.org/ns#"
   xmlns:rdf="http://www.w3.org/1999/02/22-rdf-syntax-ns#"
   xmlns:svg="http://www.w3.org/2000/svg"
   xmlns="http://www.w3.org/2000/svg"
   xmlns:sodipodi="http://sodipodi.sourceforge.net/DTD/sodipodi-0.dtd"
   xmlns:inkscape="http://www.inkscape.org/namespaces/inkscape"
   height="512"
   id="Layer_1"
   version="1.1"
   viewBox="0 0 512 512"
   width="512"
   xml:space="preserve"
   sodipodi:docname="if_hourglass_245439_jaune-rouge.svg"
   inkscape:version="0.92.2 5c3e80d, 2017-08-06"><metadata
     id="metadata63"><rdf:RDF><cc:Work
         rdf:about=""><dc:format>image/svg+xml</dc:format><dc:type
           rdf:resource="http://purl.org/dc/dcmitype/StillImage" /><dc:title></dc:title></cc:Work></rdf:RDF></metadata><defs
     id="defs61" /><sodipodi:namedview
     pagecolor="#ffffff"
     bordercolor="#666666"
     borderopacity="1"
     objecttolerance="10"
     gridtolerance="10"
     guidetolerance="10"
     inkscape:pageopacity="0"
     inkscape:pageshadow="2"
     inkscape:window-width="1920"
     inkscape:window-height="1176"
     id="namedview59"
     showgrid="false"
     inkscape:zoom="0.32593203"
     inkscape:cx="118.83004"
     inkscape:cy="-213.2874"
     inkscape:window-x="0"
     inkscape:window-y="0"
     inkscape:window-maximized="1"
     inkscape:current-layer="Layer_1"
     fit-margin-top="0"
     fit-margin-left="0"
     fit-margin-right="0"
     fit-margin-bottom="0" /><circle
     cx="256"
     cy="256"
     r="256"
     style="fill:#e05b49"
     id="circle2" /><path
     d="m 331.435,162.593 v -68.593 h -76.547 -73.453 v 68.593 c 0,0 -2.488,38.77 29.016,56.526 20.219,11.394 40.347,24.881 40.281,36.881 h 4.156 4.141 c -0.066,-12 21.615,-25.487 41.835,-36.881 31.502,-17.757 30.571,-56.526 30.571,-56.526 z"
     style="fill:#ecf0f0"
     id="path4"
     inkscape:connector-curvature="0" /><path
     d="m 181.435,350.89 v 67.11 h 73.453 76.547 v -67.11 c 0,0 0.939,-39.514 -30.565,-57.268 -20.221,-11.397 -41.891,-25.622 -41.825,-37.622 h -4.157 -4.143 c 0.07,12 -20.068,26.225 -40.285,37.622 -31.504,17.753 -29.025,57.268 -29.025,57.268 z"
     style="fill:#d3d6d6"
     id="path6"
     inkscape:connector-curvature="0" /><path
     d="m 343.435,78.499 c 0,4.694 -3.806,8.5 -8.5,8.5 h -157 c -4.694,0 -8.5,-3.806 -8.5,-8.5 v 0 c 0,-4.694 3.806,-8.5 8.5,-8.5 h 157 c 4.694,0 8.5,3.806 8.5,8.5 z"
     style="fill:#334d5c"
     id="path8"
     inkscape:connector-curvature="0" /><path
     d="m 335.962,90.5 c 0,2.188 -2.53,3.5 -5.62,3.5 h -150.907 c -3.093,0 -5.619,-1.312 -5.619,-3.5 0,-2.188 2.526,-3.5 5.619,-3.5 h 150.907 c 3.09,0 5.62,1.312 5.62,3.5 z"
     style="fill:#233540"
     id="path10"
     inkscape:connector-curvature="0" /><path
     d="m 335.962,421.5 c 0,2.186 -2.53,3.5 -5.62,3.5 h -150.907 c -3.093,0 -5.619,-1.314 -5.619,-3.5 0,-2.186 2.526,-3.5 5.619,-3.5 h 150.907 c 3.09,0 5.62,1.314 5.62,3.5 z"
     style="fill:#233540"
     id="path12"
     inkscape:connector-curvature="0" /><path
     d="m 343.435,433.5 c 0,4.694 -3.806,8.5 -8.5,8.5 h -157 c -4.694,0 -8.5,-3.806 -8.5,-8.5 v 0 c 0,-4.694 3.806,-8.5 8.5,-8.5 h 157 c 4.694,0 8.5,3.805 8.5,8.5 z"
     style="fill:#334d5c"
     id="path14"
     inkscape:connector-curvature="0" /><path
     d="m 182.349,418 c 0,0 32.42,-45.26 72.533,-45.26 40.113,0 72.547,45.26 72.547,45.26 z"
     style="fill:#f8cd2a"
     id="path16"
     inkscape:connector-curvature="0" /><path
     d="m 248.725,202.49 c -25.64,-9.062 -45.156,-12.15 -59.47,-12.553 3.083,11.294 9.847,25.051 24.69,33.418 21.096,11.888 36.742,22.345 42.736,32.645 5.996,-10.299 21.642,-20.755 42.74,-32.645 9.63,-5.427 15.853,-13.162 19.887,-21.021 -16.043,7.225 -39.449,11.161 -70.583,0.156 z"
     style="fill:#f8cd2a"
     id="path18"
     inkscape:connector-curvature="0" /><path
     d="m 253.175,242.555 c 0.287,43.982 0.574,87.965 0.86,131.947 0.013,2.201 3.427,2.202 3.413,0 -0.287,-43.982 -0.573,-87.965 -0.859,-131.947 -0.014,-2.201 -3.428,-2.202 -3.414,0 z"
     style="fill:#f8cd2a"
     id="path20"
     inkscape:connector-curvature="0" /><path
     d="m 257.448,374.13 c -0.256,-39.254 -0.514,-79.13 -0.767,-118.13 h -1.794 -1.619 c 0.253,39 0.51,78.69 0.767,117.944 0.013,2.199 3.427,2.388 3.413,0.186 z"
     style="fill:#f8cd2a"
     id="path22"
     inkscape:connector-curvature="0" /><path
     d="m 308.313,425.316 -6.827,-6.631 -108.026,-108.383 c -12.699,18.494 -11.111,40.587 -11.111,40.587 v 67.111 h -2 c -3.093,0 -5.619,1.314 -5.619,3.5 0,2.186 2.526,3.5 5.619,3.5 h -2.312 c -4.711,0 -8.533,3.787 -8.533,8.5 0,4.714 3.822,8.5 8.533,8.5 h 147.343 z"
     style="opacity:0.3;fill:#5d5d5d"
     id="path24"
     inkscape:connector-curvature="0" /><path
     d="m 208.06303,97.612676 -6.826,-7.186 -17.066,-17.422001 h -6.26 c -4.711,0 -8.533,3.787 -8.533,8.5 0,4.714 3.822,8.500001 8.533,8.500001 h 2.312 c -3.093,0 -5.619,1.312 -5.619,3.5 0,2.188 2.526,3.5 5.619,3.5 h 2 v 68.592994 c 0,0 -2.488,38.77 29.016,56.526 20.22,11.394 40.348,24.881 40.282,36.881 h 0.014 8.283 c -0.066,-12 21.26,-25.487 41.48,-36.881 7.196,-4.057 12.666,-9.046 16.846,-14.615 z"
     style="opacity:0.3;fill:#5d5d5d"
     id="path26"
     inkscape:connector-curvature="0" /><g
     id="g28" /><g
     id="g30" /><g
     id="g32" /><g
     id="g34" /><g
     id="g36" /><g
     id="g38" /><g
     id="g40" /><g
     id="g42" /><g
     id="g44" /><g
     id="g46" /><g
     id="g48" /><g
     id="g50" /><g
     id="g52" /><g
     id="g54" /><g
     id="g56" /></svg>