<?xml version="1.0" encoding="UTF-8" standalone="no"?>
<svg
   xmlns:dc="http://purl.org/dc/elements/1.1/"
   xmlns:cc="http://creativecommons.org/ns#"
   xmlns:rdf="http://www.w3.org/1999/02/22-rdf-syntax-ns#"
   xmlns:svg="http://www.w3.org/2000/svg"
   xmlns="http://www.w3.org/2000/svg"
   xmlns:xlink="http://www.w3.org/1999/xlink"
   xmlns:sodipodi="http://sodipodi.sourceforge.net/DTD/sodipodi-0.dtd"
   xmlns:inkscape="http://www.inkscape.org/namespaces/inkscape"
   height="511px"
   id="Layer_1"
   style="enable-background:new 0 0 498.56499999999999773 511"
   version="1.1"
   viewBox="0 0 498.565 511"
   width="498.565px"
   xml:space="preserve"
   sodipodi:docname="if_search_245434_orange.svg"
   inkscape:version="0.92.2 5c3e80d, 2017-08-06"><metadata
     id="metadata66"><rdf:RDF><cc:Work
         rdf:about=""><dc:format>image/svg+xml</dc:format><dc:type
           rdf:resource="http://purl.org/dc/dcmitype/StillImage" /><dc:title></dc:title></cc:Work></rdf:RDF></metadata><defs
     id="defs64"><defs
       id="defs3"><ellipse
         ry="255.49899"
         rx="249.283"
         id="SVGID_1_"
         cy="255.5"
         cx="249.283" /></defs><clipPath
       id="SVGID_2_"><use
         height="100%"
         width="100%"
         y="0"
         x="0"
         id="use7"
         xlink:href="#SVGID_1_" /></clipPath></defs><sodipodi:namedview
     pagecolor="#ffffff"
     bordercolor="#666666"
     borderopacity="1"
     objecttolerance="10"
     gridtolerance="10"
     guidetolerance="10"
     inkscape:pageopacity="0"
     inkscape:pageshadow="2"
     inkscape:window-width="1920"
     inkscape:window-height="1176"
     id="namedview62"
     showgrid="false"
     inkscape:zoom="0.46183953"
     inkscape:cx="249.2825"
     inkscape:cy="255.5"
     inkscape:window-x="0"
     inkscape:window-y="0"
     inkscape:window-maximized="1"
     inkscape:current-layer="Layer_1" /><use
     height="100%"
     width="100%"
     y="0"
     x="0"
     id="use5"
     xlink:href="#SVGID_1_"
     style="fill:#dd840d" /><path
     d="M374.395,309.314c53.039-54.36,53.061-142.474,0.022-196.836  c-53.039-54.362-139.065-54.395-192.103-0.035c-48.124,49.324-52.362,126.679-13.411,180.894l-41.972,43.019  c-3.013,3.09-3.073,8.342-0.059,11.43l17.731,18.176c3.014,3.088,7.959,2.842,10.974-0.247l41.933-42.977  C250.746,363.244,326.177,358.736,374.395,309.314z"
     style="fill:#ECF0F0"
     id="path11" /><path
     d="M127.572,336.356c-3.014,3.09-3.392,8.342-0.381,11.43l17.573,18.176  c3.014,3.088,8.52,2.842,11.535-0.247l8.136-7.766v-58.72L127.572,336.356z"
     style="opacity:0.3;fill:#5D5D5D"
     id="path13" /><path
     d="M350.71,285.039c-39.933,40.93-104.677,40.93-144.61,0c-39.932-40.929-39.932-107.287,0.002-148.214  c39.932-40.929,104.675-40.929,144.608,0C390.642,177.751,390.642,244.11,350.71,285.039z"
     style="fill:#76BED6"
     id="path15" /><path
     d="M210.647,280.38c-37.361-38.295-37.361-100.602,0-138.894c37.361-38.295,98.154-38.296,135.516-0.002  c37.361,38.294,37.361,100.602,0,138.897C308.801,318.674,248.008,318.674,210.647,280.38z"
     style="fill:#83D2ED"
     id="path17" /><path
     d="M364.98,116.789c-21.564-19-48.408-30.129-76.79-31.891c-28.047-1.742-56.522,6.565-79.616,22.903  c-5.086,3.597-0.35,12.216,4.764,8.598c21.492-15.204,47.029-22.761,73.116-21.705c26.238,1.062,51.822,11.564,71.706,29.085  C362.848,127.908,369.701,120.948,364.98,116.789L364.98,116.789z"
     style="fill:#FBFFFF"
     id="path19" /><path
     d="M346.831,263.611c-15.567,15.955-40.807,15.955-56.374,0c-15.567-15.956-15.567-41.822,0-57.778  c15.567-15.957,40.807-15.957,56.374,0C362.398,221.789,362.398,247.655,346.831,263.611z"
     style="fill:#B0EBFF"
     id="path21" /><path
     d="M345.022,176.027c-4.273,4.378-11.199,4.378-15.471-0.002c-4.272-4.378-4.272-11.476,0-15.855  c4.272-4.379,11.198-4.379,15.47,0.002C349.292,164.55,349.294,171.648,345.022,176.027z"
     style="fill:#B0EBFF"
     id="path23" /><path
     d="M134.057,323.459l-83.8,85.891c10.376,14.077,22.137,27.019,35.08,38.611l85.095-87.217  C180.436,350.491,144.062,313.208,134.057,323.459z"
     style="fill:#334D5C"
     id="path25" /><path
     d="M170.005,360.745c10.003-10.254-26.1-47.537-36.104-37.285l-27.467,28.433v74.565  L170.005,360.745z"
     style="opacity:0.3;fill:#5D5D5D"
     id="path27" /><path
     d="M175.888,369.132c-2.51,2.574-6.582,2.574-9.093,0l-41.377-42.41c-2.511-2.573-2.511-6.747,0-9.32  l10.458-10.719c2.511-2.573,6.583-2.573,9.093,0l41.377,42.41c2.513,2.574,2.513,6.746,0,9.321L175.888,369.132z"
     style="fill:#EFC84A"
     id="path29" /><g
     id="g31" /><g
     id="g33" /><g
     id="g35" /><g
     id="g37" /><g
     id="g39" /><g
     id="g41" /><g
     id="g43" /><g
     id="g45" /><g
     id="g47" /><g
     id="g49" /><g
     id="g51" /><g
     id="g53" /><g
     id="g55" /><g
     id="g57" /><g
     id="g59" /></svg>