<?xml version="1.0" encoding="UTF-8" standalone="no"?>
<!-- Created with Inkscape (http://www.inkscape.org/) -->

<svg
   xmlns:osb="http://www.openswatchbook.org/uri/2009/osb"
   xmlns:dc="http://purl.org/dc/elements/1.1/"
   xmlns:cc="http://creativecommons.org/ns#"
   xmlns:rdf="http://www.w3.org/1999/02/22-rdf-syntax-ns#"
   xmlns:svg="http://www.w3.org/2000/svg"
   xmlns="http://www.w3.org/2000/svg"
   xmlns:xlink="http://www.w3.org/1999/xlink"
   xmlns:sodipodi="http://sodipodi.sourceforge.net/DTD/sodipodi-0.dtd"
   xmlns:inkscape="http://www.inkscape.org/namespaces/inkscape"
   width="1199.9995mm"
   height="320.00046mm"
   viewBox="0 0 1199.9996 320.00045"
   version="1.1"
   id="svg7678"
   inkscape:version="0.92.2 5c3e80d, 2017-08-06"
   sodipodi:docname="logo-traductik_FR.svg"
   inkscape:export-filename="/home/fred/Bureau/Images web &amp; marketing/Logo Traduc'tik/logo-traductik2400ppp.png"
   inkscape:export-xdpi="2400.0027"
   inkscape:export-ydpi="2400.0027">
  <defs
     id="defs7672">
    <linearGradient
       id="linearGradient957"
       osb:paint="solid">
      <stop
         style="stop-color:#000000;stop-opacity:0.02079002"
         offset="0"
         id="stop955" />
    </linearGradient>
    <inkscape:perspective
       sodipodi:type="inkscape:persp3d"
       inkscape:vp_x="0 : 0.032593421 : 1"
       inkscape:vp_y="0 : 3.0064442 : 0"
       inkscape:vp_z="0.064099191 : 0.032593421 : 1"
       inkscape:persp3d-origin="0.032049598 : 0.021728949 : 1"
       id="perspective5022" />
    <marker
       inkscape:stockid="Arrow2Send"
       orient="auto"
       refY="0"
       refX="0"
       id="Arrow2Send-61-5-1"
       style="overflow:visible"
       inkscape:isstock="true">
      <path
         inkscape:connector-curvature="0"
         id="path5352-3-7-0"
         style="fill:#f8cd2a;fill-rule:evenodd;stroke:#f8cd2a;stroke-width:0.625;stroke-linejoin:round"
         d="M 8.7185878,4.0337352 -2.2072895,0.01601326 8.7185884,-4.0017078 c -1.7454984,2.3720609 -1.7354408,5.6174519 -6e-7,8.035443 z"
         transform="matrix(-0.3,0,0,-0.3,0.69,0)" />
    </marker>
    <linearGradient
       id="linearGradient4018">
      <stop
         id="stop4020"
         style="stop-color:#ffffff;stop-opacity:0.30000001"
         offset="0" />
      <stop
         id="stop4022"
         style="stop-color:#ffffff;stop-opacity:0"
         offset="1" />
    </linearGradient>
    <linearGradient
       id="linearGradient4024">
      <stop
         id="stop4026"
         offset="0"
         style="stop-color:#ffffff" />
      <stop
         id="stop4034"
         style="stop-color:#ffffff;stop-opacity:0.49803922"
         offset="0.5" />
      <stop
         id="stop4028"
         offset="1"
         style="stop-color:#ffffff;stop-opacity:0" />
    </linearGradient>
    <marker
       id="a"
       orient="auto"
       overflow="visible"
       refX="0"
       refY="0"
       style="overflow:visible"
       transform="translate(-1.213858,-0.79572784)">
      <path
         d="M 8.7185878,4.0337352 -2.2072895,0.01601326 8.7185884,-4.0017078 c -1.7454984,2.3720609 -1.7354408,5.6174519 -6e-7,8.035443 z"
         transform="matrix(-0.3,0,0,-0.3,0.69,0)"
         id="path2"
         inkscape:connector-curvature="0"
         style="fill:#f8cd2a;fill-rule:evenodd;stroke:#f8cd2a;stroke-width:0.625;stroke-linejoin:round" />
    </marker>
    <linearGradient
       id="b"
       gradientTransform="matrix(0.02839443,0.01092716,-0.01074963,0.02891821,58.692085,19.744095)"
       gradientUnits="userSpaceOnUse"
       x1="369"
       x2="369"
       y1="614.86218"
       y2="478.36218">
      <stop
         offset="0"
         stop-color="#fff"
         stop-opacity=".3"
         id="stop5" />
      <stop
         offset="1"
         stop-color="#fff"
         stop-opacity="0"
         id="stop7" />
    </linearGradient>
    <linearGradient
       id="c"
       gradientTransform="matrix(-0.0101113,0.01601823,-0.03835248,-0.01733591,74.030317,32.301502)"
       gradientUnits="userSpaceOnUse"
       spreadMethod="reflect"
       x1="84.270332"
       x2="398.27032"
       y1="158.15402"
       y2="158.15402">
      <stop
         offset="0"
         stop-color="#fff"
         id="stop10" />
      <stop
         offset=".5"
         stop-color="#fff"
         stop-opacity=".498039"
         id="stop12" />
      <stop
         offset="1"
         stop-color="#fff"
         stop-opacity="0"
         id="stop14" />
    </linearGradient>
    <linearGradient
       id="d"
       gradientTransform="matrix(0.00610098,-0.02127825,-0.04425521,-0.01605446,78.007024,50.674023)"
       gradientUnits="userSpaceOnUse"
       x1="149.80469"
       x2="365.625"
       xlink:href="#e"
       y1="360.66406"
       y2="360.66406" />
    <linearGradient
       id="e">
      <stop
         offset="0"
         stop-color="#fff"
         id="stop18" />
      <stop
         offset="1"
         stop-color="#fff"
         stop-opacity="0"
         id="stop20" />
    </linearGradient>
    <linearGradient
       id="f"
       gradientTransform="matrix(-0.05302138,-0.02040446,-0.01029433,0.02769338,78.924775,33.645179)"
       gradientUnits="userSpaceOnUse"
       x1="213.15121"
       x2="242.87743"
       xlink:href="#e"
       y1="252.88338"
       y2="252.88338" />
    <linearGradient
       id="g"
       gradientTransform="matrix(-0.03445507,-0.29448203,-0.02409583,-0.00893322,78.416503,105.53065)"
       gradientUnits="userSpaceOnUse"
       x1="213.27011"
       x2="242.75851"
       xlink:href="#e"
       y1="252.88338"
       y2="252.88338" />
    <filter
       id="h"
       height="1.737821"
       width="1.702686"
       x="-0.35134301"
       y="-0.36891001">
      <feGaussianBlur
         stdDeviation="3.9028595"
         id="feGaussianBlur25" />
    </filter>
    <filter
       id="filter1901"
       height="1.737821"
       width="1.702686"
       x="-0.35134301"
       y="-0.36891001">
      <feGaussianBlur
         stdDeviation="3.9028595"
         id="feGaussianBlur1899" />
    </filter>
    <filter
       id="i"
       height="1.614851"
       width="1.585572"
       x="-0.292786"
       y="-0.30742499">
      <feGaussianBlur
         stdDeviation="3.2523829"
         id="feGaussianBlur28" />
    </filter>
    <linearGradient
       id="j"
       gradientTransform="matrix(-0.24150566,-0.34753167,0.34871621,-0.23392978,-1545.024,626.73227)"
       gradientUnits="userSpaceOnUse"
       x1="210.78125"
       x2="239.90234"
       xlink:href="#e"
       y1="257.83203"
       y2="257.83203" />
    <filter
       id="filter1914"
       height="1.737821"
       width="1.702686"
       x="-0.35134301"
       y="-0.36891001">
      <feGaussianBlur
         stdDeviation="3.9028595"
         id="feGaussianBlur1912" />
    </filter>
    <filter
       id="filter1918"
       height="1.737821"
       width="1.702686"
       x="-0.35134301"
       y="-0.36891001">
      <feGaussianBlur
         stdDeviation="3.9028595"
         id="feGaussianBlur1916" />
    </filter>
    <linearGradient
       inkscape:collect="always"
       xlink:href="#linearGradient957"
       id="linearGradient959"
       x1="-1611.6417"
       y1="-24.875702"
       x2="-126.37589"
       y2="-24.875702"
       gradientUnits="userSpaceOnUse"
       gradientTransform="matrix(0.91205446,0,0,0.82728996,-160.52835,473.99758)" />
  </defs>
  <sodipodi:namedview
     id="base"
     pagecolor="#ffffff"
     bordercolor="#666666"
     borderopacity="1.0"
     inkscape:pageopacity="0.0"
     inkscape:pageshadow="2"
     inkscape:zoom="0.099575318"
     inkscape:cx="1589.408"
     inkscape:cy="112.50284"
     inkscape:document-units="mm"
     inkscape:current-layer="layer1"
     showgrid="false"
     fit-margin-top="0"
     fit-margin-left="0"
     fit-margin-right="0"
     fit-margin-bottom="0"
     inkscape:showpageshadow="false"
     showborder="false"
     inkscape:window-width="1920"
     inkscape:window-height="1176"
     inkscape:window-x="0"
     inkscape:window-y="0"
     inkscape:window-maximized="1"
     objecttolerance="10000"
     viewbox-width="90.2"
     scale-x="1"
     viewbox-y="0"
     inkscape:pagecheckerboard="false"
     units="mm"
     inkscape:object-nodes="false"
     showguides="false" />
  <metadata
     id="metadata7675">
    <rdf:RDF>
      <cc:Work
         rdf:about="">
        <dc:format>image/svg+xml</dc:format>
        <dc:type
           rdf:resource="http://purl.org/dc/dcmitype/StillImage" />
        <dc:title></dc:title>
      </cc:Work>
    </rdf:RDF>
  </metadata>
  <g
     inkscape:label="Calque 1"
     inkscape:groupmode="layer"
     id="layer1"
     transform="translate(1630.4448,-313.33465)"
     style="opacity:0.96000001">
    <g
       id="g2020"
       inkscape:export-xdpi="96"
       inkscape:export-ydpi="96"
       transform="matrix(0.8858265,0,0,0.88930187,-186.15334,70.109206)">
      <rect
         ry="9.0175781"
         rx="4.5508509e-06"
         y="586.70325"
         x="-1614.5701"
         height="12.752769"
         width="1322.1976"
         id="rect5628-9-75-54-1"
         style="color:#000000;fill:#dd840d;stroke-width:2.16500139;stroke-linecap:round;stroke-opacity:0" />
      <rect
         ry="12.7307"
         rx="4.5508514e-06"
         y="599.45599"
         x="-1614.5701"
         height="18.00391"
         width="1322.1976"
         id="rect5628-9-75-5-2-3"
         style="color:#000000;fill:#f8cd2a;stroke-width:2.16500115;stroke-linecap:round;stroke-opacity:0" />
      <g
         id="g1923">
        <g
           id="text5026-8-1"
           style="font-weight:bold;font-size:15.16280365px;font-family:sans-serif;-inkscape-font-specification:'sans-serif, Bold';letter-spacing:0px;word-spacing:0px;fill:#42673e;stroke-width:0.01773114px"
           transform="matrix(10.694839,0,0,20.819885,-2466.1883,-119.59037)"
           aria-label="TRADUC'TIK">
          <path
             inkscape:connector-curvature="0"
             id="path1043"
             style="-inkscape-font-specification:'sans-serif, Bold';stroke-width:0.01773113px"
             d="m 103.09971,19.842993 h 10.18751 v 2.15448 h -3.66484 v 8.899263 h -2.85043 v -8.899263 h -3.67224 z" />
          <path
             inkscape:connector-curvature="0"
             id="path1045"
             style="-inkscape-font-specification:'sans-serif, Bold';stroke-width:0.01773113px"
             d="m 118.54488,24.744251 q 0.89585,0 1.28084,-0.333167 0.3924,-0.333167 0.3924,-1.09575 0,-0.755178 -0.3924,-1.080942 -0.38499,-0.325763 -1.28084,-0.325763 h -1.19941 v 2.835622 z m -1.19941,1.969387 v 4.183098 h -2.85042 V 19.842993 h 4.35338 q 2.18409,0 3.1984,0.732968 1.02171,0.732967 1.02171,2.317362 0,1.095749 -0.53306,1.799102 -0.52567,0.703353 -1.5918,1.03652 0.58489,0.133266 1.04392,0.607104 0.46644,0.466434 0.94027,1.421513 l 1.54738,3.139174 h -3.03552 l -1.34748,-2.746777 q -0.4072,-0.829216 -0.82921,-1.132768 -0.41461,-0.303553 -1.11056,-0.303553 z" />
          <path
             inkscape:connector-curvature="0"
             id="path1047"
             style="-inkscape-font-specification:'sans-serif, Bold';stroke-width:0.01773113px"
             d="m 132.61295,28.882926 h -4.45703 l -0.70336,2.01381 h -2.86523 l 4.09425,-11.053743 h 3.3983 l 4.09426,11.053743 h -2.86524 z m -3.74628,-2.050828 h 3.02812 l -1.51036,-4.397805 z" />
          <path
             inkscape:connector-curvature="0"
             id="path1049"
             style="-inkscape-font-specification:'sans-serif, Bold';stroke-width:0.01773113px"
             d="m 140.22499,21.997473 v 6.744783 h 1.02171 q 1.74728,0 2.66534,-0.866235 0.92546,-0.866234 0.92546,-2.517262 0,-1.643624 -0.91806,-2.502455 -0.91806,-0.858831 -2.67274,-0.858831 z m -2.85043,-2.15448 h 3.00591 q 2.51726,0 3.74628,0.362782 1.23642,0.355378 2.11746,1.214209 0.77739,0.747775 1.15498,1.725065 0.37759,0.97729 0.37759,2.21371 0,1.251227 -0.37759,2.235921 -0.37759,0.97729 -1.15498,1.725065 -0.88845,0.858831 -2.13227,1.221613 -1.24382,0.355378 -3.73147,0.355378 h -3.00591 z" />
          <path
             inkscape:connector-curvature="0"
             id="path1051"
             style="-inkscape-font-specification:'sans-serif, Bold';stroke-width:0.01773113px"
             d="m 149.70277,19.842993 h 2.85042 v 6.626323 q 0,1.369687 0.44423,1.961984 0.45162,0.584893 1.46593,0.584893 1.02171,0 1.46594,-0.584893 0.45162,-0.592297 0.45162,-1.961984 v -6.626323 h 2.85043 v 6.626323 q 0,2.346977 -1.17719,3.494552 -1.17719,1.147576 -3.5908,1.147576 -2.4062,0 -3.58339,-1.147576 -1.17719,-1.147575 -1.17719,-3.494552 z" />
          <path
             inkscape:connector-curvature="0"
             id="path1053"
             style="-inkscape-font-specification:'sans-serif, Bold';stroke-width:0.01773113px"
             d="m 170.53043,30.289632 q -0.78479,0.407204 -1.63622,0.614508 -0.85143,0.207304 -1.77689,0.207304 -2.76159,0 -4.3756,-1.539972 -1.61401,-1.547376 -1.61401,-4.190502 0,-2.650529 1.61401,-4.190501 1.61401,-1.547376 4.3756,-1.547376 0.92546,0 1.77689,0.207304 0.85143,0.207304 1.63622,0.614508 v 2.287747 q -0.7922,-0.540471 -1.56218,-0.792197 -0.76999,-0.251726 -1.62142,-0.251726 -1.52516,0 -2.3988,0.97729 -0.87364,0.97729 -0.87364,2.694951 0,1.710258 0.87364,2.687548 0.87364,0.97729 2.3988,0.97729 0.85143,0 1.62142,-0.251726 0.76998,-0.251726 1.56218,-0.792198 z" />
          <path
             inkscape:connector-curvature="0"
             id="path1055"
             style="-inkscape-font-specification:'sans-serif, Bold';stroke-width:0.01773113px"
             d="m 174.44801,19.842993 v 4.109061 h -1.75468 v -4.109061 z" />
          <path
             inkscape:connector-curvature="0"
             id="path1057"
             style="-inkscape-font-specification:'sans-serif, Bold';stroke-width:0.01773113px"
             d="m 175.71507,19.842993 h 10.18751 v 2.15448 h -3.66483 v 8.899263 h -2.85043 v -8.899263 h -3.67225 z" />
          <path
             inkscape:connector-curvature="0"
             id="path1059"
             style="-inkscape-font-specification:'sans-serif, Bold';stroke-width:0.01773113px"
             d="m 187.11041,19.842993 h 2.85043 v 11.053743 h -2.85043 z" />
          <path
             inkscape:connector-curvature="0"
             id="path1061"
             style="-inkscape-font-specification:'sans-serif, Bold';stroke-width:0.01773113px"
             d="m 192.50873,19.842993 h 2.85043 v 4.035023 l 4.10906,-4.035023 h 3.30946 l -5.32327,5.234425 5.87115,5.819318 h -3.56859 l -4.39781,-4.353383 v 4.353383 h -2.85043 z" />
        </g>
        <g
           id="text4612"
           style="font-style:italic;font-size:3.59871507px;font-family:'Liberation Serif';-inkscape-font-specification:'Liberation Serif, Italic';letter-spacing:0px;word-spacing:0px;fill:#183f8e;stroke-width:0.01773114px"
           transform="matrix(14.928815,0,0,14.915138,-2466.1883,-119.59037)"
           aria-label="Traduction &amp; rédaction multilingue depuis 1992">
          <path
             inkscape:connector-curvature="0"
             id="path1064"
             style="-inkscape-font-specification:'Liberation Serif, Italic';stroke-width:0.01773113px"
             d="m 76.203941,46.470726 0.01757,-0.09313 0.381309,-0.04744 0.363737,-2.064692 h -0.08962 q -0.34968,0 -0.516613,0.03514 l -0.11246,0.367252 h -0.117731 l 0.0984,-0.553513 h 1.880188 l -0.0984,0.553513 h -0.119489 l 0.01757,-0.367252 q -0.158146,-0.03163 -0.516612,-0.03163 h -0.0861 l -0.363737,2.061178 0.367251,0.04744 -0.01757,0.09313 z" />
          <path
             inkscape:connector-curvature="0"
             id="path1066"
             style="-inkscape-font-specification:'Liberation Serif, Italic';stroke-width:0.01773113px"
             d="m 78.973264,44.775042 q 0.08786,0 0.138818,0.01406 l -0.07732,0.432267 h -0.07556 l -0.06677,-0.223162 q -0.140575,0 -0.291693,0.107188 -0.149361,0.107188 -0.274121,0.282907 L 78.1386,46.470728 h -0.291693 l 0.268849,-1.528751 -0.207348,-0.04393 0.01406,-0.07907 h 0.48674 l -0.05447,0.372523 q 0.131789,-0.198562 0.29345,-0.307507 0.163418,-0.108946 0.325079,-0.108946 z" />
          <path
             inkscape:connector-curvature="0"
             id="path1068"
             style="-inkscape-font-specification:'Liberation Serif, Italic';stroke-width:0.01773113px"
             d="m 80.486201,46.347723 0.198562,0.04393 -0.01406,0.07907 h -0.500798 l 0.05096,-0.274121 q -0.296964,0.311022 -0.54297,0.311022 -0.21262,0 -0.342651,-0.15639 -0.128275,-0.156389 -0.128275,-0.43051 0,-0.307507 0.133546,-0.574599 0.135303,-0.26885 0.360223,-0.41821 0.22492,-0.151118 0.488498,-0.151118 0.212619,0 0.400638,0.0738 l 0.07907,-0.05974 h 0.09489 z m -0.05096,-1.347761 q -0.06853,-0.04744 -0.128274,-0.06502 -0.05974,-0.01933 -0.147604,-0.01933 -0.175718,0 -0.323322,0.133546 -0.145846,0.131789 -0.230191,0.356709 -0.08434,0.22492 -0.08434,0.469168 0,0.188019 0.07732,0.300479 0.07732,0.11246 0.210863,0.11246 0.198561,0 0.434024,-0.244249 z" />
          <path
             inkscape:connector-curvature="0"
             id="path1070"
             style="-inkscape-font-specification:'Liberation Serif, Italic';stroke-width:0.01773113px"
             d="m 82.275015,44.817215 q 0.007,-0.08434 0.119489,-0.722203 l -0.270607,-0.04217 0.01406,-0.07907 h 0.569328 l -0.421725,2.373957 0.198562,0.04393 -0.01406,0.07907 h -0.500798 l 0.05096,-0.274121 q -0.296964,0.311022 -0.54297,0.311022 -0.216133,0 -0.342651,-0.161661 -0.126517,-0.163418 -0.126517,-0.432268 0,-0.300478 0.128274,-0.564056 0.130032,-0.265335 0.354952,-0.41821 0.224919,-0.154632 0.493769,-0.154632 0.165175,0 0.289935,0.04041 z m -0.04041,0.182747 q -0.0615,-0.04041 -0.126517,-0.06326 -0.06502,-0.02284 -0.158147,-0.02284 -0.165175,0 -0.309264,0.130032 -0.14409,0.130031 -0.231949,0.358465 -0.08786,0.228435 -0.08786,0.472683 0,0.188019 0.07732,0.300479 0.07732,0.11246 0.209105,0.11246 0.0984,0 0.212619,-0.06326 0.115975,-0.06502 0.223163,-0.18099 z" />
          <path
             inkscape:connector-curvature="0"
             id="path1072"
             style="-inkscape-font-specification:'Liberation Serif, Italic';stroke-width:0.01773113px"
             d="m 83.169422,46.131589 q 0,0.07907 0.04217,0.128275 0.04217,0.0492 0.133546,0.0492 0.131789,0 0.284664,-0.108945 0.152875,-0.110703 0.251277,-0.270607 l 0.195048,-1.110541 h 0.291693 l -0.26885,1.528751 0.207348,0.04393 -0.01406,0.07907 H 83.80376 l 0.04744,-0.339137 q -0.145846,0.188019 -0.303993,0.284664 -0.158146,0.09665 -0.312779,0.09665 -0.177475,0 -0.267092,-0.09489 -0.08962,-0.09665 -0.08962,-0.275878 0,-0.02636 0.0088,-0.09313 0.01054,-0.06853 0.189776,-1.108784 l -0.195048,-0.04217 0.01406,-0.07907 h 0.493769 l -0.179233,1.020925 q -0.04042,0.221405 -0.04042,0.291692 z" />
          <path
             inkscape:connector-curvature="0"
             id="path1074"
             style="-inkscape-font-specification:'Liberation Serif, Italic';stroke-width:0.01773113px"
             d="m 85.857915,46.221206 q -0.142331,0.131789 -0.319807,0.209105 -0.177476,0.07556 -0.33738,0.07556 -0.282907,0 -0.437539,-0.163418 -0.154632,-0.163419 -0.154632,-0.451597 0,-0.30575 0.123003,-0.557028 0.123003,-0.253034 0.34968,-0.405909 0.228434,-0.152876 0.477954,-0.152876 0.12476,0 0.265335,0.02636 0.140575,0.02636 0.231948,0.06502 l -0.07907,0.460383 h -0.09665 l -0.02811,-0.305751 q -0.110703,-0.110702 -0.295207,-0.110702 -0.16869,0 -0.316293,0.12476 -0.145847,0.12476 -0.233706,0.347922 -0.08786,0.223163 -0.08786,0.490255 0,0.449839 0.36198,0.449839 0.251277,0 0.523641,-0.175718 z" />
          <path
             inkscape:connector-curvature="0"
             id="path1076"
             style="-inkscape-font-specification:'Liberation Serif, Italic';stroke-width:0.01773113px"
             d="m 86.557275,46.164976 q 0,0.07907 0.03866,0.119488 0.04041,0.03866 0.101917,0.03866 0.128274,0 0.267092,-0.05271 l 0.0369,0.08259 q -0.216134,0.152875 -0.437539,0.152875 -0.138818,0 -0.219648,-0.08434 -0.07907,-0.08435 -0.07907,-0.235463 0,-0.05096 0.0088,-0.119489 0.01054,-0.07029 0.19329,-1.099997 h -0.216133 l 0.01406,-0.07907 0.233706,-0.06853 0.240734,-0.37428 h 0.11246 l -0.06502,0.37428 h 0.377795 l -0.02811,0.147604 h -0.377795 l -0.170447,0.964694 q -0.03163,0.161661 -0.03163,0.233706 z" />
          <path
             inkscape:connector-curvature="0"
             id="path1078"
             style="-inkscape-font-specification:'Liberation Serif, Italic';stroke-width:0.01773113px"
             d="m 87.604557,46.347723 0.275878,0.04393 -0.01406,0.07907 h -0.5746 l 0.26885,-1.528751 -0.226677,-0.04393 0.01406,-0.07907 h 0.525399 z m 0.377795,-2.068207 q 0,0.07732 -0.05623,0.133546 -0.05623,0.05623 -0.135303,0.05623 -0.07732,0 -0.133546,-0.05623 -0.05623,-0.05623 -0.05623,-0.133546 0,-0.07907 0.05623,-0.135303 0.05623,-0.05623 0.133546,-0.05623 0.07907,0 0.135303,0.05623 0.05623,0.05623 0.05623,0.135303 z" />
          <path
             inkscape:connector-curvature="0"
             id="path1080"
             style="-inkscape-font-specification:'Liberation Serif, Italic';stroke-width:0.01773113px"
             d="m 88.505993,45.873283 q 0,0.23722 0.09137,0.363737 0.09313,0.124761 0.258306,0.124761 0.159904,0 0.303993,-0.128275 0.145847,-0.128274 0.230191,-0.34968 0.08434,-0.223162 0.08434,-0.477954 0,-0.242492 -0.09313,-0.367252 -0.09137,-0.126517 -0.263578,-0.126517 -0.159904,0 -0.303993,0.128274 -0.142332,0.128275 -0.22492,0.351437 -0.08259,0.221406 -0.08259,0.481469 z m 0.333866,0.632587 q -0.291693,0 -0.467412,-0.186262 -0.175718,-0.188019 -0.175718,-0.506069 0,-0.282907 0.121246,-0.523641 0.121245,-0.240735 0.335622,-0.377795 0.216134,-0.137061 0.484983,-0.137061 0.291693,0 0.467411,0.188019 0.175719,0.186262 0.175719,0.504312 0,0.282907 -0.121246,0.523641 -0.121246,0.240735 -0.33738,0.377795 -0.214376,0.137061 -0.483225,0.137061 z" />
          <path
             inkscape:connector-curvature="0"
             id="path1082"
             style="-inkscape-font-specification:'Liberation Serif, Italic';stroke-width:0.01773113px"
             d="m 91.215573,45.156352 q 0,-0.07907 -0.04217,-0.128275 -0.04217,-0.0492 -0.133546,-0.0492 -0.130032,0 -0.284664,0.110703 -0.152875,0.110702 -0.253035,0.27412 l -0.19329,1.107027 h -0.291693 l 0.26885,-1.530508 -0.207348,-0.04393 0.01406,-0.07907 h 0.488498 l -0.04744,0.337379 q 0.147603,-0.189776 0.30575,-0.284664 0.158147,-0.09489 0.311022,-0.09489 0.177475,0 0.267092,0.09665 0.08962,0.09489 0.08962,0.27412 0,0.0246 -0.007,0.07556 -0.007,0.05096 -0.191534,1.128113 l 0.230192,0.04217 -0.01406,0.07907 h -0.528912 l 0.179232,-1.022682 q 0.04042,-0.223162 0.04042,-0.291692 z" />
          <path
             inkscape:connector-curvature="0"
             id="path1084"
             style="-inkscape-font-specification:'Liberation Serif, Italic';stroke-width:0.01773113px"
             d="m 94.555982,44.534308 q 0,0.140575 -0.06853,0.240734 -0.06677,0.10016 -0.186262,0.175719 -0.117731,0.0738 -0.435782,0.188019 l 0.604472,0.706388 q 0.258306,-0.347923 0.325079,-0.651916 l -0.240734,-0.04744 0.01581,-0.09313 h 0.803034 l -0.01582,0.09313 -0.253034,0.04744 q -0.21262,0.479712 -0.509584,0.79952 l 0.295207,0.340894 0.284664,0.04217 -0.01757,0.09489 H 94.55246 l -0.198561,-0.240734 q -0.205591,0.152875 -0.391853,0.214376 -0.186261,0.0615 -0.411181,0.0615 -0.388338,0 -0.5992,-0.163418 -0.210862,-0.163419 -0.210862,-0.469169 0,-0.161661 0.06853,-0.29345 0.07029,-0.133546 0.216134,-0.235463 0.145846,-0.103674 0.421724,-0.202076 -0.108945,-0.156389 -0.149361,-0.267092 -0.04041,-0.110703 -0.04041,-0.226677 0,-0.258306 0.18099,-0.414696 0.18099,-0.156389 0.499041,-0.156389 0.19329,0 0.33035,0.05799 0.138818,0.05623 0.21262,0.161661 0.07556,0.103674 0.07556,0.23722 z M 93.5333,45.26354 q -0.235463,0.100159 -0.340894,0.24952 -0.103674,0.147604 -0.103674,0.354952 0,0.226676 0.130032,0.356708 0.131789,0.130032 0.367252,0.130032 0.175718,0 0.340894,-0.06853 0.166932,-0.07029 0.30575,-0.20032 z m 0.04042,-0.674759 q 0,0.110702 0.05272,0.216134 0.05447,0.103673 0.144089,0.219648 0.228434,-0.0861 0.314536,-0.144089 0.0861,-0.05799 0.131789,-0.135304 0.04569,-0.07907 0.04569,-0.189776 0,-0.161661 -0.08786,-0.24952 -0.08786,-0.08786 -0.23722,-0.08786 -0.184505,0 -0.274121,0.100159 -0.08962,0.10016 -0.08962,0.270607 z" />
          <path
             inkscape:connector-curvature="0"
             id="path1086"
             style="-inkscape-font-specification:'Liberation Serif, Italic';stroke-width:0.01773113px"
             d="m 97.557253,44.775042 q 0.08786,0 0.138818,0.01406 l -0.07732,0.432267 h -0.07556 l -0.06677,-0.223162 q -0.140575,0 -0.291693,0.107188 -0.149361,0.107188 -0.274121,0.282907 l -0.188019,1.082426 h -0.291692 l 0.268849,-1.528751 -0.207348,-0.04393 0.01406,-0.07907 h 0.48674 l -0.05447,0.372523 q 0.131789,-0.198562 0.29345,-0.307507 0.163418,-0.108946 0.325079,-0.108946 z" />
          <path
             inkscape:connector-curvature="0"
             id="path1088"
             style="-inkscape-font-specification:'Liberation Serif, Italic';stroke-width:0.01773113px"
             d="m 99.200222,45.135265 q 0,0.238978 -0.295207,0.407667 -0.295207,0.16869 -0.792491,0.202077 l -0.007,0.128274 q 0,0.223163 0.09313,0.33738 0.09489,0.112459 0.279393,0.112459 0.158146,0 0.291693,-0.05271 0.133546,-0.05447 0.24952,-0.123003 l 0.05096,0.0738 q -0.161661,0.13706 -0.342651,0.210862 -0.179233,0.0738 -0.340894,0.0738 -0.284664,0 -0.439296,-0.158147 -0.152875,-0.159904 -0.152875,-0.456868 0,-0.29345 0.123003,-0.546485 0.12476,-0.254791 0.344408,-0.411181 0.219648,-0.158147 0.460383,-0.158147 0.216133,0 0.346165,0.10016 0.131789,0.0984 0.131789,0.260063 z m -1.07364,0.499041 q 0.347922,-0.02636 0.557027,-0.163418 0.209105,-0.137061 0.209105,-0.335623 0,-0.0984 -0.05447,-0.161661 -0.05272,-0.06326 -0.154633,-0.06326 -0.123003,0 -0.238977,0.100159 -0.115974,0.10016 -0.200319,0.26885 -0.08434,0.168689 -0.117731,0.354951 z m 0.472683,-1.128113 0.0088,-0.05799 0.428754,-0.477954 h 0.37428 l -0.01054,0.06501 -0.704631,0.470926 z" />
          <path
             inkscape:connector-curvature="0"
             id="path1090"
             style="-inkscape-font-specification:'Liberation Serif, Italic';stroke-width:0.01773113px"
             d="m 100.65517,44.817215 q 0.007,-0.08434 0.11949,-0.722203 l -0.27061,-0.04217 0.0141,-0.07907 h 0.56933 l -0.42173,2.373957 0.19857,0.04393 -0.0141,0.07907 h -0.5008 l 0.051,-0.274121 q -0.29697,0.311022 -0.542971,0.311022 -0.216134,0 -0.342651,-0.161661 -0.126518,-0.163418 -0.126518,-0.432268 0,-0.300478 0.128275,-0.564056 0.130032,-0.265335 0.354951,-0.41821 0.224924,-0.154632 0.493774,-0.154632 0.16517,0 0.28993,0.04041 z m -0.0404,0.182747 q -0.0615,-0.04041 -0.12652,-0.06326 -0.065,-0.02284 -0.15815,-0.02284 -0.16517,0 -0.30926,0.130032 -0.144092,0.130031 -0.231951,0.358465 -0.08786,0.228435 -0.08786,0.472683 0,0.188019 0.07732,0.300479 0.07732,0.11246 0.209105,0.11246 0.0984,0 0.212616,-0.06326 0.11597,-0.06502 0.22316,-0.18099 z" />
          <path
             inkscape:connector-curvature="0"
             id="path1092"
             style="-inkscape-font-specification:'Liberation Serif, Italic';stroke-width:0.01773113px"
             d="m 102.46507,46.347723 0.19856,0.04393 -0.014,0.07907 h -0.5008 l 0.051,-0.274121 q -0.29697,0.311022 -0.54297,0.311022 -0.21262,0 -0.34265,-0.15639 -0.12828,-0.156389 -0.12828,-0.43051 0,-0.307507 0.13355,-0.574599 0.1353,-0.26885 0.36022,-0.41821 0.22492,-0.151118 0.4885,-0.151118 0.21262,0 0.40064,0.0738 l 0.0791,-0.05974 h 0.0949 z m -0.051,-1.347761 q -0.0685,-0.04744 -0.12827,-0.06502 -0.0597,-0.01933 -0.1476,-0.01933 -0.17572,0 -0.32333,0.133546 -0.14584,0.131789 -0.23019,0.356709 -0.0843,0.22492 -0.0843,0.469168 0,0.188019 0.0773,0.300479 0.0773,0.11246 0.21087,0.11246 0.19856,0 0.43402,-0.244249 z" />
          <path
             inkscape:connector-curvature="0"
             id="path1094"
             style="-inkscape-font-specification:'Liberation Serif, Italic';stroke-width:0.01773113px"
             d="m 104.23807,46.221206 q -0.14233,0.131789 -0.31981,0.209105 -0.17747,0.07556 -0.33738,0.07556 -0.2829,0 -0.43754,-0.163418 -0.15463,-0.163419 -0.15463,-0.451597 0,-0.30575 0.12301,-0.557028 0.123,-0.253034 0.34968,-0.405909 0.22843,-0.152876 0.47795,-0.152876 0.12476,0 0.26533,0.02636 0.14058,0.02636 0.23195,0.06502 l -0.0791,0.460383 h -0.0967 l -0.0281,-0.305751 q -0.1107,-0.110702 -0.29521,-0.110702 -0.16869,0 -0.31629,0.12476 -0.14585,0.12476 -0.23371,0.347922 -0.0879,0.223163 -0.0879,0.490255 0,0.449839 0.36198,0.449839 0.25128,0 0.52365,-0.175718 z" />
          <path
             inkscape:connector-curvature="0"
             id="path1096"
             style="-inkscape-font-specification:'Liberation Serif, Italic';stroke-width:0.01773113px"
             d="m 104.93743,46.164976 q 0,0.07907 0.0387,0.119488 0.0404,0.03866 0.10192,0.03866 0.12827,0 0.26709,-0.05271 l 0.0369,0.08259 q -0.21614,0.152875 -0.43754,0.152875 -0.13882,0 -0.21965,-0.08434 -0.0791,-0.08435 -0.0791,-0.235463 0,-0.05096 0.009,-0.119489 0.0105,-0.07029 0.19329,-1.099997 h -0.21613 l 0.0141,-0.07907 0.2337,-0.06853 0.24074,-0.37428 h 0.11246 l -0.065,0.37428 h 0.3778 l -0.0281,0.147604 h -0.37779 l -0.17045,0.964694 q -0.0316,0.161661 -0.0316,0.233706 z" />
          <path
             inkscape:connector-curvature="0"
             id="path1098"
             style="-inkscape-font-specification:'Liberation Serif, Italic';stroke-width:0.01773113px"
             d="m 105.98471,46.347723 0.27588,0.04393 -0.0141,0.07907 h -0.5746 l 0.26885,-1.528751 -0.22667,-0.04393 0.014,-0.07907 h 0.5254 z m 0.3778,-2.068207 q 0,0.07732 -0.0562,0.133546 -0.0562,0.05623 -0.13531,0.05623 -0.0773,0 -0.13354,-0.05623 -0.0562,-0.05623 -0.0562,-0.133546 0,-0.07907 0.0562,-0.135303 0.0562,-0.05623 0.13354,-0.05623 0.0791,0 0.13531,0.05623 0.0562,0.05623 0.0562,0.135303 z" />
          <path
             inkscape:connector-curvature="0"
             id="path1100"
             style="-inkscape-font-specification:'Liberation Serif, Italic';stroke-width:0.01773113px"
             d="m 106.88615,45.873283 q 0,0.23722 0.0914,0.363737 0.0931,0.124761 0.25831,0.124761 0.1599,0 0.30399,-0.128275 0.14585,-0.128274 0.23019,-0.34968 0.0844,-0.223162 0.0844,-0.477954 0,-0.242492 -0.0931,-0.367252 -0.0914,-0.126517 -0.26358,-0.126517 -0.1599,0 -0.30399,0.128274 -0.14234,0.128275 -0.22492,0.351437 -0.0826,0.221406 -0.0826,0.481469 z m 0.33386,0.632587 q -0.29169,0 -0.46741,-0.186262 -0.17572,-0.188019 -0.17572,-0.506069 0,-0.282907 0.12125,-0.523641 0.12125,-0.240735 0.33562,-0.377795 0.21614,-0.137061 0.48499,-0.137061 0.29169,0 0.46741,0.188019 0.17572,0.186262 0.17572,0.504312 0,0.282907 -0.12125,0.523641 -0.12125,0.240735 -0.33738,0.377795 -0.21438,0.137061 -0.48323,0.137061 z" />
          <path
             inkscape:connector-curvature="0"
             id="path1102"
             style="-inkscape-font-specification:'Liberation Serif, Italic';stroke-width:0.01773113px"
             d="m 109.59573,45.156352 q 0,-0.07907 -0.0422,-0.128275 -0.0422,-0.0492 -0.13355,-0.0492 -0.13003,0 -0.28466,0.110703 -0.15288,0.110702 -0.25304,0.27412 l -0.19329,1.107027 h -0.29169 l 0.26885,-1.530508 -0.20735,-0.04393 0.0141,-0.07907 h 0.4885 l -0.0474,0.337379 q 0.1476,-0.189776 0.30575,-0.284664 0.15815,-0.09489 0.31102,-0.09489 0.17748,0 0.2671,0.09665 0.0896,0.09489 0.0896,0.27412 0,0.0246 -0.007,0.07556 -0.007,0.05096 -0.19153,1.128113 l 0.23019,0.04217 -0.0141,0.07907 h -0.52891 l 0.17923,-1.022682 q 0.0404,-0.223162 0.0404,-0.291692 z" />
          <path
             inkscape:connector-curvature="0"
             id="path1104"
             style="-inkscape-font-specification:'Liberation Serif, Italic';stroke-width:0.01773113px"
             d="m 112.50211,45.159866 q 0.11949,-0.170447 0.27061,-0.277635 0.15112,-0.107189 0.28993,-0.107189 0.14761,0 0.23195,0.09489 0.0861,0.09313 0.0861,0.270607 0,0.03866 -0.009,0.101917 -0.007,0.0615 -0.18626,1.105269 l 0.23019,0.04393 -0.0158,0.07907 h -0.52891 l 0.18099,-1.022682 q 0.0404,-0.212619 0.0404,-0.291692 0,-0.07907 -0.0369,-0.126518 -0.0369,-0.0492 -0.11598,-0.0492 -0.0773,0 -0.1845,0.0738 -0.10719,0.0738 -0.19505,0.189776 -0.0861,0.114217 -0.10367,0.214376 l -0.17397,1.012139 h -0.29169 l 0.17923,-1.022682 q 0.0439,-0.230191 0.0439,-0.291692 0,-0.07907 -0.0387,-0.126518 -0.0387,-0.0492 -0.12125,-0.0492 -0.0773,0 -0.18978,0.07907 -0.11246,0.07732 -0.19856,0.189776 -0.0861,0.110703 -0.10191,0.209105 l -0.17397,1.012139 h -0.29169 l 0.26885,-1.528751 -0.20735,-0.04393 0.0141,-0.07907 h 0.4885 l -0.0492,0.340894 q 0.123,-0.173961 0.27588,-0.279392 0.15287,-0.105432 0.28817,-0.105432 0.15464,0 0.23898,0.0984 0.0861,0.09665 0.0861,0.286421 z" />
          <path
             inkscape:connector-curvature="0"
             id="path1106"
             style="-inkscape-font-specification:'Liberation Serif, Italic';stroke-width:0.01773113px"
             d="m 114.03965,46.131589 q 0,0.07907 0.0422,0.128275 0.0422,0.0492 0.13355,0.0492 0.13179,0 0.28466,-0.108945 0.15288,-0.110703 0.25128,-0.270607 l 0.19505,-1.110541 h 0.29169 l -0.26885,1.528751 0.20735,0.04393 -0.0141,0.07907 h -0.48849 l 0.0474,-0.339137 q -0.14585,0.188019 -0.30399,0.284664 -0.15815,0.09665 -0.31278,0.09665 -0.17748,0 -0.2671,-0.09489 -0.0896,-0.09665 -0.0896,-0.275878 0,-0.02636 0.009,-0.09313 0.0106,-0.06853 0.18978,-1.108784 l -0.19505,-0.04217 0.0141,-0.07907 h 0.49377 l -0.17923,1.020925 q -0.0404,0.221405 -0.0404,0.291692 z" />
          <path
             inkscape:connector-curvature="0"
             id="path1108"
             style="-inkscape-font-specification:'Liberation Serif, Italic';stroke-width:0.01773113px"
             d="m 115.87239,46.347723 0.27588,0.04393 -0.0141,0.07907 h -0.5746 l 0.41646,-2.375714 -0.22668,-0.04217 0.0141,-0.07907 h 0.5254 z" />
          <path
             inkscape:connector-curvature="0"
             id="path1110"
             style="-inkscape-font-specification:'Liberation Serif, Italic';stroke-width:0.01773113px"
             d="m 116.83006,46.164976 q 0,0.07907 0.0387,0.119488 0.0404,0.03866 0.10191,0.03866 0.12828,0 0.2671,-0.05271 l 0.0369,0.08259 q -0.21614,0.152875 -0.43754,0.152875 -0.13882,0 -0.21965,-0.08434 -0.0791,-0.08435 -0.0791,-0.235463 0,-0.05096 0.009,-0.119489 0.0105,-0.07029 0.19329,-1.099997 h -0.21613 l 0.0141,-0.07907 0.2337,-0.06853 0.24074,-0.37428 h 0.11246 l -0.065,0.37428 h 0.37779 l -0.0281,0.147604 h -0.3778 l -0.17044,0.964694 q -0.0316,0.161661 -0.0316,0.233706 z" />
          <path
             inkscape:connector-curvature="0"
             id="path1112"
             style="-inkscape-font-specification:'Liberation Serif, Italic';stroke-width:0.01773113px"
             d="m 117.87734,46.347723 0.27588,0.04393 -0.0141,0.07907 h -0.5746 l 0.26885,-1.528751 -0.22668,-0.04393 0.0141,-0.07907 h 0.5254 z m 0.3778,-2.068207 q 0,0.07732 -0.0562,0.133546 -0.0562,0.05623 -0.13531,0.05623 -0.0773,0 -0.13354,-0.05623 -0.0562,-0.05623 -0.0562,-0.133546 0,-0.07907 0.0562,-0.135303 0.0562,-0.05623 0.13354,-0.05623 0.0791,0 0.13531,0.05623 0.0562,0.05623 0.0562,0.135303 z" />
          <path
             inkscape:connector-curvature="0"
             id="path1114"
             style="-inkscape-font-specification:'Liberation Serif, Italic';stroke-width:0.01773113px"
             d="m 118.86664,46.347723 0.27587,0.04393 -0.014,0.07907 h -0.5746 l 0.41645,-2.375714 -0.22668,-0.04217 0.0141,-0.07907 h 0.5254 z" />
          <path
             inkscape:connector-curvature="0"
             id="path1116"
             style="-inkscape-font-specification:'Liberation Serif, Italic';stroke-width:0.01773113px"
             d="m 119.8735,46.347723 0.27588,0.04393 -0.0141,0.07907 h -0.5746 l 0.26885,-1.528751 -0.22667,-0.04393 0.014,-0.07907 h 0.5254 z m 0.3778,-2.068207 q 0,0.07732 -0.0562,0.133546 -0.0562,0.05623 -0.13531,0.05623 -0.0773,0 -0.13354,-0.05623 -0.0562,-0.05623 -0.0562,-0.133546 0,-0.07907 0.0562,-0.135303 0.0562,-0.05623 0.13354,-0.05623 0.0791,0 0.13531,0.05623 0.0562,0.05623 0.0562,0.135303 z" />
          <path
             inkscape:connector-curvature="0"
             id="path1118"
             style="-inkscape-font-specification:'Liberation Serif, Italic';stroke-width:0.01773113px"
             d="m 121.68516,45.156352 q 0,-0.07907 -0.0422,-0.128275 -0.0422,-0.0492 -0.13355,-0.0492 -0.13003,0 -0.28466,0.110703 -0.15288,0.110702 -0.25304,0.27412 l -0.19329,1.107027 h -0.29169 l 0.26885,-1.530508 -0.20735,-0.04393 0.0141,-0.07907 h 0.4885 l -0.0474,0.337379 q 0.14761,-0.189776 0.30575,-0.284664 0.15815,-0.09489 0.31103,-0.09489 0.17747,0 0.26709,0.09665 0.0896,0.09489 0.0896,0.27412 0,0.0246 -0.007,0.07556 -0.007,0.05096 -0.19153,1.128113 l 0.23019,0.04217 -0.0141,0.07907 h -0.52892 l 0.17924,-1.022682 q 0.0404,-0.223162 0.0404,-0.291692 z" />
          <path
             inkscape:connector-curvature="0"
             id="path1120"
             style="-inkscape-font-specification:'Liberation Serif, Italic';stroke-width:0.01773113px"
             d="m 122.89235,46.287979 q 0.0984,0 0.21789,-0.06502 0.12124,-0.06502 0.23546,-0.179233 l 0.19329,-1.08594 q -0.0422,-0.01054 -0.0756,-0.01933 -0.0334,-0.0088 -0.0668,-0.01406 -0.0316,-0.0053 -0.0685,-0.007 -0.0369,-0.0035 -0.0844,-0.0035 -0.17571,0 -0.32683,0.131789 -0.15112,0.131789 -0.23722,0.354951 -0.0861,0.223163 -0.0861,0.47444 0,0.189776 0.0773,0.302236 0.0791,0.110703 0.22141,0.110703 z m 0.42875,-0.0984 q -0.12652,0.138818 -0.28291,0.228434 -0.15463,0.08962 -0.27939,0.08962 -0.22316,0 -0.35144,-0.15639 -0.12827,-0.158146 -0.12827,-0.43051 0,-0.307507 0.13355,-0.571085 0.1353,-0.265335 0.36373,-0.41821 0.23019,-0.154632 0.49904,-0.154632 0.10544,0 0.27413,0.02109 0.17044,0.01933 0.30223,0.05096 l -0.29521,1.683383 q -0.065,0.370767 -0.25479,0.537699 -0.18802,0.166933 -0.55703,0.166933 -0.15463,0 -0.3198,-0.0369 -0.16518,-0.03514 -0.26534,-0.08786 l 0.0316,-0.400639 h 0.0791 l 0.0633,0.221406 q 0.14234,0.138817 0.40943,0.138817 0.21437,0 0.34089,-0.11246 0.12652,-0.110702 0.16869,-0.356708 z" />
          <path
             inkscape:connector-curvature="0"
             id="path1122"
             style="-inkscape-font-specification:'Liberation Serif, Italic';stroke-width:0.01773113px"
             d="m 124.42813,46.131589 q 0,0.07907 0.0422,0.128275 0.0422,0.0492 0.13355,0.0492 0.13179,0 0.28466,-0.108945 0.15288,-0.110703 0.25128,-0.270607 l 0.19505,-1.110541 h 0.29169 l -0.26885,1.528751 0.20735,0.04393 -0.0141,0.07907 h -0.4885 l 0.0474,-0.339137 q -0.14585,0.188019 -0.304,0.284664 -0.15814,0.09665 -0.31278,0.09665 -0.17747,0 -0.26709,-0.09489 -0.0896,-0.09665 -0.0896,-0.275878 0,-0.02636 0.009,-0.09313 0.0105,-0.06853 0.18978,-1.108784 l -0.19505,-0.04217 0.0141,-0.07907 h 0.49377 l -0.17924,1.020925 q -0.0404,0.221405 -0.0404,0.291692 z" />
          <path
             inkscape:connector-curvature="0"
             id="path1124"
             style="-inkscape-font-specification:'Liberation Serif, Italic';stroke-width:0.01773113px"
             d="m 127.27301,45.135265 q 0,0.238978 -0.29521,0.407667 -0.2952,0.16869 -0.79249,0.202077 l -0.007,0.128274 q 0,0.223163 0.0931,0.33738 0.0949,0.112459 0.27939,0.112459 0.15815,0 0.29169,-0.05271 0.13355,-0.05447 0.24952,-0.123003 l 0.051,0.0738 q -0.16166,0.13706 -0.34265,0.210862 -0.17923,0.0738 -0.34089,0.0738 -0.28467,0 -0.4393,-0.158147 -0.15288,-0.159904 -0.15288,-0.456868 0,-0.29345 0.12301,-0.546485 0.12476,-0.254791 0.34441,-0.411181 0.21964,-0.158147 0.46038,-0.158147 0.21613,0 0.34616,0.10016 0.13179,0.0984 0.13179,0.260063 z m -1.07364,0.499041 q 0.34792,-0.02636 0.55703,-0.163418 0.2091,-0.137061 0.2091,-0.335623 0,-0.0984 -0.0545,-0.161661 -0.0527,-0.06326 -0.15463,-0.06326 -0.123,0 -0.23898,0.100159 -0.11597,0.10016 -0.20032,0.26885 -0.0843,0.168689 -0.11773,0.354951 z" />
          <path
             inkscape:connector-curvature="0"
             id="path1126"
             style="-inkscape-font-specification:'Liberation Serif, Italic';stroke-width:0.01773113px"
             d="m 129.62764,44.817215 q 0.007,-0.08434 0.11949,-0.722203 l -0.27061,-0.04217 0.0141,-0.07907 h 0.56933 l -0.42173,2.373957 0.19856,0.04393 -0.014,0.07907 h -0.5008 l 0.051,-0.274121 q -0.29697,0.311022 -0.54297,0.311022 -0.21614,0 -0.34265,-0.161661 -0.12652,-0.163418 -0.12652,-0.432268 0,-0.300478 0.12827,-0.564056 0.13003,-0.265335 0.35495,-0.41821 0.22492,-0.154632 0.49377,-0.154632 0.16518,0 0.28994,0.04041 z m -0.0404,0.182747 q -0.0615,-0.04041 -0.12651,-0.06326 -0.065,-0.02284 -0.15815,-0.02284 -0.16518,0 -0.30927,0.130032 -0.14408,0.130031 -0.23194,0.358465 -0.0879,0.228435 -0.0879,0.472683 0,0.188019 0.0773,0.300479 0.0773,0.11246 0.20911,0.11246 0.0984,0 0.21262,-0.06326 0.11597,-0.06502 0.22316,-0.18099 z" />
          <path
             inkscape:connector-curvature="0"
             id="path1128"
             style="-inkscape-font-specification:'Liberation Serif, Italic';stroke-width:0.01773113px"
             d="m 131.56757,45.135265 q 0,0.238978 -0.29521,0.407667 -0.2952,0.16869 -0.79249,0.202077 l -0.007,0.128274 q 0,0.223163 0.0931,0.33738 0.0949,0.112459 0.27939,0.112459 0.15815,0 0.29169,-0.05271 0.13355,-0.05447 0.24952,-0.123003 l 0.051,0.0738 q -0.16166,0.13706 -0.34265,0.210862 -0.17923,0.0738 -0.3409,0.0738 -0.28466,0 -0.43929,-0.158147 -0.15288,-0.159904 -0.15288,-0.456868 0,-0.29345 0.12301,-0.546485 0.12476,-0.254791 0.3444,-0.411181 0.21965,-0.158147 0.46039,-0.158147 0.21613,0 0.34616,0.10016 0.13179,0.0984 0.13179,0.260063 z m -1.07364,0.499041 q 0.34792,-0.02636 0.55703,-0.163418 0.2091,-0.137061 0.2091,-0.335623 0,-0.0984 -0.0545,-0.161661 -0.0527,-0.06326 -0.15463,-0.06326 -0.123,0 -0.23898,0.100159 -0.11597,0.10016 -0.20032,0.26885 -0.0843,0.168689 -0.11773,0.354951 z" />
          <path
             inkscape:connector-curvature="0"
             id="path1130"
             style="-inkscape-font-specification:'Liberation Serif, Italic';stroke-width:0.01773113px"
             d="m 132.05607,46.467212 -0.0193,0.158146 -0.0844,0.486741 0.28115,0.04217 -0.014,0.08259 h -0.78371 l 0.0141,-0.08259 0.21262,-0.04217 0.38482,-2.170124 -0.18099,-0.04393 0.0141,-0.07907 h 0.46565 l -0.0334,0.267092 q 0.30751,-0.311022 0.55351,-0.311022 0.21262,0 0.34089,0.15639 0.13004,0.156389 0.13004,0.43051 0,0.309265 -0.13179,0.576357 -0.13179,0.265335 -0.35847,0.416453 -0.22667,0.151118 -0.49201,0.151118 -0.0808,0 -0.16869,-0.0123 -0.0861,-0.01054 -0.13003,-0.02636 z m 0.0422,-0.184505 q 0.10895,0.08434 0.29521,0.08434 0.17396,0 0.31453,-0.128274 0.14234,-0.128275 0.22844,-0.358466 0.0861,-0.231949 0.0861,-0.472683 0,-0.195048 -0.0791,-0.303993 -0.0773,-0.108945 -0.20911,-0.108945 -0.0931,0 -0.21965,0.06853 -0.12651,0.06853 -0.22492,0.175718 z" />
          <path
             inkscape:connector-curvature="0"
             id="path1132"
             style="-inkscape-font-specification:'Liberation Serif, Italic';stroke-width:0.01773113px"
             d="m 133.91693,46.131589 q 0,0.07907 0.0422,0.128275 0.0422,0.0492 0.13355,0.0492 0.13179,0 0.28466,-0.108945 0.15288,-0.110703 0.25128,-0.270607 l 0.19505,-1.110541 h 0.29169 l -0.26885,1.528751 0.20735,0.04393 -0.0141,0.07907 h -0.4885 l 0.0474,-0.339137 q -0.14585,0.188019 -0.304,0.284664 -0.15814,0.09665 -0.31278,0.09665 -0.17747,0 -0.26709,-0.09489 -0.0896,-0.09665 -0.0896,-0.275878 0,-0.02636 0.009,-0.09313 0.0105,-0.06853 0.18978,-1.108784 l -0.19505,-0.04217 0.0141,-0.07907 h 0.49377 l -0.17924,1.020925 q -0.0404,0.221405 -0.0404,0.291692 z" />
          <path
             inkscape:connector-curvature="0"
             id="path1134"
             style="-inkscape-font-specification:'Liberation Serif, Italic';stroke-width:0.01773113px"
             d="m 135.75846,46.347723 0.27588,0.04393 -0.0141,0.07907 h -0.5746 l 0.26885,-1.528751 -0.22668,-0.04393 0.0141,-0.07907 h 0.5254 z m 0.37779,-2.068207 q 0,0.07732 -0.0562,0.133546 -0.0562,0.05623 -0.1353,0.05623 -0.0773,0 -0.13355,-0.05623 -0.0562,-0.05623 -0.0562,-0.133546 0,-0.07907 0.0562,-0.135303 0.0562,-0.05623 0.13355,-0.05623 0.0791,0 0.1353,0.05623 0.0562,0.05623 0.0562,0.135303 z" />
          <path
             inkscape:connector-curvature="0"
             id="path1136"
             style="-inkscape-font-specification:'Liberation Serif, Italic';stroke-width:0.01773113px"
             d="m 137.45941,45.985743 q 0,0.265335 -0.16869,0.393609 -0.16868,0.126518 -0.51134,0.126518 -0.24249,0 -0.49201,-0.108946 l 0.072,-0.397124 h 0.0791 l 0.0299,0.240735 q 0.0457,0.0492 0.12828,0.08786 0.0843,0.03866 0.18977,0.03866 0.38483,0 0.38483,-0.314536 0,-0.103674 -0.0826,-0.184504 -0.0808,-0.08083 -0.26534,-0.170447 -0.17747,-0.0861 -0.26357,-0.189776 -0.0861,-0.105432 -0.0861,-0.246006 0,-0.231949 0.15639,-0.358466 0.15639,-0.128275 0.43403,-0.128275 0.19856,0 0.47092,0.0615 l -0.065,0.367252 h -0.0826 l -0.0246,-0.189776 q -0.1107,-0.0984 -0.29169,-0.0984 -0.14409,0 -0.23019,0.06677 -0.0861,0.06502 -0.0861,0.203834 0,0.09489 0.0738,0.166932 0.0738,0.07205 0.27939,0.177476 0.18274,0.09489 0.26709,0.203833 0.0843,0.108946 0.0843,0.251278 z" />
          <path
             inkscape:connector-curvature="0"
             id="path1138"
             style="-inkscape-font-specification:'Liberation Serif, Italic';stroke-width:0.01773113px"
             d="m 139.48018,46.330151 0.47444,0.04744 -0.0176,0.09313 h -1.26693 l 0.0176,-0.09313 0.49025,-0.04744 0.33914,-1.92236 -0.50607,0.170447 0.0176,-0.09313 0.75559,-0.390095 h 0.0914 z" />
          <path
             inkscape:connector-curvature="0"
             id="path1140"
             style="-inkscape-font-specification:'Liberation Serif, Italic';stroke-width:0.01773113px"
             d="m 141.39023,44.087983 q 0.33211,0 0.51134,0.212619 0.18099,0.21262 0.18099,0.606229 0,0.448082 -0.14584,0.818849 -0.14585,0.370766 -0.39361,0.576356 -0.24601,0.203834 -0.54121,0.203834 -0.31805,0 -0.55527,-0.09489 l 0.0685,-0.388338 h 0.11597 l 0.0193,0.246006 q 0.0597,0.03514 0.15112,0.06326 0.0931,0.02636 0.19329,0.02636 0.2829,0 0.47444,-0.267092 0.19153,-0.267092 0.26182,-0.729232 -0.14409,0.08434 -0.29345,0.128275 -0.14936,0.04393 -0.27061,0.04393 -0.28115,0 -0.44281,-0.158146 -0.16166,-0.158147 -0.16166,-0.435782 0,-0.254792 0.10016,-0.44984 0.10016,-0.195047 0.28818,-0.298721 0.18802,-0.103674 0.43929,-0.103674 z m 0.38131,0.757347 q 0,-0.295207 -0.0984,-0.456868 -0.0984,-0.161661 -0.28642,-0.161661 -0.23898,0 -0.36901,0.186261 -0.12827,0.186262 -0.12827,0.51837 0,0.221405 0.0966,0.328593 0.0984,0.105432 0.27061,0.105432 0.24073,0 0.49025,-0.107189 0.0246,-0.200319 0.0246,-0.412938 z" />
          <path
             inkscape:connector-curvature="0"
             id="path1142"
             style="-inkscape-font-specification:'Liberation Serif, Italic';stroke-width:0.01773113px"
             d="m 143.1896,44.087983 q 0.3321,0 0.51134,0.212619 0.18099,0.21262 0.18099,0.606229 0,0.448082 -0.14585,0.818849 -0.14585,0.370766 -0.39361,0.576356 -0.246,0.203834 -0.54121,0.203834 -0.31805,0 -0.55527,-0.09489 l 0.0685,-0.388338 h 0.11597 l 0.0193,0.246006 q 0.0598,0.03514 0.15112,0.06326 0.0931,0.02636 0.19329,0.02636 0.28291,0 0.47444,-0.267092 0.19153,-0.267092 0.26182,-0.729232 -0.14409,0.08434 -0.29345,0.128275 -0.14936,0.04393 -0.27061,0.04393 -0.28115,0 -0.44281,-0.158146 -0.16166,-0.158147 -0.16166,-0.435782 0,-0.254792 0.10016,-0.44984 0.10016,-0.195047 0.28818,-0.298721 0.18802,-0.103674 0.4393,-0.103674 z m 0.3813,0.757347 q 0,-0.295207 -0.0984,-0.456868 -0.0984,-0.161661 -0.28642,-0.161661 -0.23898,0 -0.36901,0.186261 -0.12827,0.186262 -0.12827,0.51837 0,0.221405 0.0966,0.328593 0.0984,0.105432 0.27061,0.105432 0.24073,0 0.49025,-0.107189 0.0246,-0.200319 0.0246,-0.412938 z" />
          <path
             inkscape:connector-curvature="0"
             id="path1144"
             style="-inkscape-font-specification:'Liberation Serif, Italic';stroke-width:0.01773113px"
             d="m 145.38256,46.470726 h -1.44089 l 0.0457,-0.258306 0.37253,-0.272364 q 0.38658,-0.272364 0.59217,-0.467411 0.20559,-0.196805 0.30399,-0.411181 0.10016,-0.216134 0.10016,-0.465654 0,-0.188019 -0.10191,-0.274121 -0.10192,-0.0861 -0.29873,-0.0861 -0.0966,0 -0.20383,0.02811 -0.10543,0.02636 -0.17748,0.06501 l -0.11246,0.288179 h -0.11597 l 0.0791,-0.453354 q 0.33563,-0.07556 0.55703,-0.07556 0.32684,0 0.50256,0.133546 0.17572,0.133546 0.17572,0.374281 0,0.230191 -0.10895,0.44281 -0.10895,0.21262 -0.33211,0.416453 -0.2214,0.202076 -0.61501,0.477954 l -0.37253,0.267093 h 1.1984 z" />
        </g>
        <g
           id="g1830">
          <path
             d="m -1488.9794,312.98822 c 39.0992,-9.77092 78.4931,0.16565 105.4269,26.59207 26.9338,26.42665 37.984,65.98464 29.573,105.86602"
             id="path32"
             inkscape:connector-curvature="0"
             style="fill:none;stroke:#dd840d;stroke-width:8.00000381;stroke-linecap:round" />
          <g
             id="g1791">
            <path
               style="fill:none;stroke:#dd840d;stroke-width:6.00000286;stroke-linecap:round;stroke-opacity:0.90588199"
               inkscape:connector-curvature="0"
               id="path34"
               d="m -1482.5988,341.75416 c 28.0952,-7.02104 56.4022,0.11876 75.7558,19.10812 19.3536,18.9892 27.2939,47.41408 21.2502,76.07134" />
            <path
               style="fill:none;stroke:#dd840d;stroke-width:4.00000191;stroke-linecap:round;stroke-opacity:0.90588199"
               inkscape:connector-curvature="0"
               id="path36"
               d="m -1480.388,368.05863 c 19.6666,-4.91471 39.4816,0.0832 53.0291,13.3757 13.5474,13.29239 19.1057,33.18982 14.8751,53.24993" />
            <g
               id="g1754">
              <path
                 d="m -1570.1377,539.72881 c -49.9642,-47.69867 -41.0022,-127.35099 10.9212,-173.37426 12.6282,-11.19324 27.3486,-20.25208 43.216,-26.71703"
                 id="path38"
                 inkscape:connector-curvature="0"
                 style="fill:none;stroke:#f8cd2a;stroke-width:22.14803505;marker-end:url(#a)" />
              <g
                 transform="matrix(15.064897,0,0,14.84406,-2489.1288,-49.015065)"
                 id="g84"
                 style="stroke-width:0.10109683">
                <path
                   d="M 70.273445,38.340774 A 6.2261735,5.8833897 26.568184 0 1 58.658398,33.8709 6.2261735,5.8833897 26.568184 1 1 70.273445,38.340774 Z"
                   id="path40"
                   inkscape:connector-curvature="0"
                   style="fill:#183f8e;stroke:#0b1e46;stroke-width:0.10109684" />
                <path
                   d="m 59.423874,34.714123 c -0.449773,2.558498 -1.042093,5.145465 3.056404,6.795568 4.744989,1.062626 5.558452,-0.896599 6.731149,-2.566207 -1.86337,1.382148 -3.908862,2.141105 -6.379452,1.445461 -2.789528,-1.221871 -2.846252,-3.550646 -3.408101,-5.674822 z"
                   id="path42"
                   inkscape:connector-curvature="0"
                   style="fill:url(#b);stroke-width:0.10109684" />
                <path
                   d="m 69.965804,37.403164 c 0,0 -0.212672,0.335691 -0.294093,0.352075 -0.08142,0.01638 -0.549948,0.229754 -0.549948,0.229754 l -0.143494,0.18337 -0.192062,0.618003 -0.47437,0.330417 -0.235949,0.39831 -0.320546,0.186812 -0.604115,-0.232486 -0.310726,-0.346239 -0.04318,-0.458012 -0.01673,-0.292748 0.145459,-0.289981 0.248193,-0.262373 -0.02701,-0.535295 0.151302,-0.407026 -0.426409,-0.271463 -0.61898,-0.226275 -0.359098,-0.722742 0.268343,-0.75566 0.504751,-0.378373 0.649459,-0.227249 0.879369,0.302623 0.275809,0.440169 0.934288,0.323759 0.0388,-0.104366 -0.200839,-0.506755 -0.153774,-0.05917 -0.111803,0.06434 c 0,0 -0.0052,-0.121274 -0.02066,-0.07953 -0.01552,0.04174 -0.02459,0.133694 -0.02459,0.133694 l -0.06585,-0.228146 -0.05043,0.135675 -0.07156,-0.136455 -0.06865,-0.417482 -0.109619,-0.03532 -0.08363,0.05014 0.05718,0.234685 0.123325,0.212117 -0.03494,0.05517 -0.06613,-0.09406 -0.04535,0.0443 -0.02046,0.07445 -0.06056,-0.05075 0.04648,-0.105607 -0.129211,-0.468232 -0.378639,-0.166295 -0.185826,0.07257 -0.189214,0.256499 -0.171311,-0.02475 -0.06058,0.06587 -0.290926,-0.208008 0.17626,-0.47417 0.09402,-0.03928 c 0.06206,-0.0041 0.165822,0.03543 0.347807,0.113265 0.118159,0.03527 0.131618,-0.145557 0.131638,-0.354126 l -0.0665,-0.07361 0.09997,-0.01641 0.119644,0.06662 0.368641,0.01838 0.254587,-0.121571 0.285071,-0.164725 0.09847,0.06534 0.160181,-0.06185 0.213622,-0.210502 c 0.197206,0.337894 0.411965,0.68469 0.546169,0.99519 0.602021,1.25901 0.87136,2.470523 0.523066,3.236007 -0.158852,-0.05023 -0.191275,0.04374 -0.321551,0.103525 L 69.74778,37.032707 69.541289,36.50043 69.3913,35.893849 l 0.07676,0.667593 0.103915,0.575129 0.448502,0.172599 z"
                   id="path44"
                   inkscape:connector-curvature="0"
                   style="opacity:0.7;fill:#e3e6f1;stroke-width:0.10109684" />
                <path
                   d="m 64.235635,36.388918 -0.156016,0.230124 -0.327684,0.186382 -0.158466,0.363104 -0.597297,0.216547 -0.205602,0.300324 -0.521127,0.201219 -0.553746,0.09938 -0.262446,0.39005 -0.249154,0.417486 -0.03517,0.410556 -0.355402,-0.181412 -0.06524,-0.203667 c 0,0 -0.09059,-0.32503 -0.006,-0.426374 0.08465,-0.101343 0.389518,-0.92148 0.389518,-0.92148 l 0.266122,-0.589518 c 0,0 0.12757,-0.406599 0.119813,-0.511902 -0.0059,-0.08001 -0.314196,-0.664741 -0.239462,-0.695962 l 0.02573,-0.435343 0.151209,-0.343578 0.327682,-0.186381 -0.361344,-0.607786 0.05196,-0.308656 -0.473731,-0.389347 -0.293659,-0.537097 0.04006,-0.676516 0.324189,-0.745735 c -0.201224,0.155728 -0.282396,0.385716 -0.34955,0.624374 l -0.06711,0.02208 0.06791,-0.284031 0.04595,-0.292486 0.364531,-0.372687 c 0,0 0.810388,-0.31676 0.861426,-0.324619 0.08856,-0.01363 0.118151,-0.166857 0.10333,-0.172561 l 0.967856,-0.289385 0.221788,0.530064 0.02837,0.261439 c 0,0 0.117404,0.05575 0.16088,0.07384 0.102088,0.04248 0.493685,-0.610056 0.454415,-0.648264 l 0.315915,0.26473 0.385091,0.112408 0.172373,0.650883 -0.371487,0.326572 0.0845,0.04017 0.215798,0.09498 -0.122182,0.227361 -0.228043,-0.230915 0.05043,-0.135675 -0.362469,-0.13949 -0.03945,0.139901 0.195092,0.218234 -0.185514,0.262635 -0.228698,-0.195377 -0.341205,0.107283 -0.257819,-0.01571 -0.129286,0.212697 -0.194535,0.151798 -0.374156,0.09461 -0.09826,0.129203 0.0077,0.181911 -0.06333,0.03527 -0.09497,-0.04848 -0.0038,-0.192348 -0.04585,-0.113082 -0.319187,-0.08705 -0.449735,-0.0061 -0.234639,0.327237 0.03099,0.119293 0.2552,0.157858 0.123442,-0.09565 0.322414,0.112146 -0.182896,0.120488 0.06198,0.238582 0.137602,0.136462 -0.135081,0.12696 0.112361,0.305689 0.343121,-0.01112 0.651931,0.238957 0.07875,0.328546 0.330123,0.294057 0.204767,0.293533 0.158866,0.383235 0.360505,0.246102 z"
                   id="path46"
                   inkscape:connector-curvature="0"
                   style="opacity:0.7;fill:#e3e6f1;stroke-width:0.10109684" />
                <path
                   d="m 63.201163,34.119912 a 0.12946887,0.08906342 21.63888 0 1 -0.241647,-0.09299 0.12946887,0.08906342 21.63888 1 1 0.241647,0.09299 z"
                   id="path48"
                   inkscape:connector-curvature="0"
                   style="opacity:0.7;fill:#e3e6f1;stroke-width:0.10109684" />
                <path
                   d="m 66.814853,30.775015 c 2.418692,1.374641 3.639155,2.842248 2.746357,4.47382 -1.576343,2.05381 -3.724496,1.159698 -5.806249,0.607911 -2.964267,-1.827819 -2.65588,-2.976018 -2.328664,-4.120307 0.988073,-2.016066 3.118869,-1.634456 5.388556,-0.961424 z"
                   id="path50"
                   inkscape:connector-curvature="0"
                   style="fill:url(#c);stroke-width:0.10109684" />
                <path
                   d="m 63.975955,33.994578 a 0.02941849,0.03897349 19.520837 1 1 0.003,-0.02097"
                   id="path52"
                   inkscape:connector-curvature="0"
                   style="opacity:0.7;fill:#e3e6f1;stroke-width:0.10109684" />
                <path
                   d="m 62.765734,33.73761 c 0.01429,0.154387 0.192121,0.298664 -0.235245,0.159991 -0.180856,-0.096 -0.15067,-0.3105 -0.391444,-0.568176 0.296945,0.04298 0.428265,0.261052 0.626689,0.408185 z"
                   id="path54"
                   inkscape:connector-curvature="0"
                   style="opacity:0.7;fill:#e3e6f1;stroke-width:0.10109684" />
                <path
                   d="m 64.145976,33.672296 a 0.02942073,0.07794105 20.282183 1 1 0.01022,-0.04033"
                   id="path56"
                   inkscape:connector-curvature="0"
                   style="opacity:0.7;fill:#e3e6f1;stroke-width:0.10109684" />
                <path
                   d="m 63.585406,35.07899 a 0.03532719,0.03338223 26.568179 1 1 0.0011,-0.01852"
                   id="path58"
                   inkscape:connector-curvature="0"
                   style="opacity:0.7;fill:#e3e6f1;stroke-width:0.10109684" />
                <path
                   d="m 63.452314,34.997948 a 0.01176825,0.02783618 20.248361 1 1 0.0034,-0.01448"
                   id="path60"
                   inkscape:connector-curvature="0"
                   style="opacity:0.7;fill:#e3e6f1;stroke-width:0.10109684" />
                <path
                   d="m 65.397098,35.811981 a 0.05887864,0.05563705 26.568181 1 1 0.0019,-0.03087"
                   id="path62"
                   inkscape:connector-curvature="0"
                   style="opacity:0.7;fill:#e3e6f1;stroke-width:0.10109684" />
                <path
                   d="m 65.210977,35.907369 a 0.02942031,0.05567299 20.136753 1 1 0.0062,-0.02927"
                   id="path64"
                   inkscape:connector-curvature="0"
                   style="opacity:0.7;fill:#e3e6f1;stroke-width:0.10109684" />
                <path
                   d="m 65.090761,36.028119 a 0.02353533,0.03340512 19.743567 1 1 0.0028,-0.01788"
                   id="path66"
                   inkscape:connector-curvature="0"
                   style="opacity:0.7;fill:#e3e6f1;stroke-width:0.10109684" />
                <path
                   d="m 69.398667,38.827526 -0.404539,0.14256 -0.342562,0.38114 0.02449,0.271875 0.317928,-0.04467 0.215241,-0.275054 0.166116,-0.210453 z"
                   id="path68"
                   inkscape:connector-curvature="0"
                   style="opacity:0.7;fill:#e3e6f1;stroke-width:0.10109684" />
                <path
                   d="m 68.139973,33.024724 -0.08696,8.39e-4 -0.09365,0.01885 -0.112603,0.01155 -0.04755,-0.06632 0.07583,-0.08746 -0.01371,-0.176794 0.03646,-0.136908 0.01228,-0.09133 -0.07097,-0.06161 0.0918,-0.03328 0.14529,0.05591 -0.02677,0.07203 0.0698,0.239546 0.06723,0.149366 z"
                   id="path70"
                   inkscape:connector-curvature="0"
                   style="opacity:0.7;fill:#e3e6f1;stroke-width:0.10109684" />
                <path
                   d="m 67.722303,32.905154 0.0461,-0.08517 0.01489,-0.117762 -0.07358,-0.03517 -0.155344,0.02941 -0.0528,0.103177 c 0,0 0.07914,0.07847 0.110721,0.09064 0.03159,0.01215 0.109995,0.01488 0.109995,0.01488 z"
                   id="path72"
                   inkscape:connector-curvature="0"
                   style="opacity:0.7;fill:#e3e6f1;stroke-width:0.10109684" />
                <path
                   d="m 67.369977,31.116326 c -0.03609,0.09715 -0.510929,0.187376 -0.510929,0.187376 l -0.607583,-0.05544 -0.296603,0.215173 c 0,0 -0.259746,-0.0588 -0.273858,-0.09853 -0.01411,-0.03973 -0.102493,-0.307012 -0.102493,-0.307012 0,0 -0.273737,-0.201557 -0.228861,-0.23901 0.08094,-0.06754 -0.466148,-0.530966 -0.496574,-0.522063 0.714073,0.07263 1.641073,0.321106 2.516901,0.819504 z"
                   id="path74"
                   inkscape:connector-curvature="0"
                   style="opacity:0.7;fill:#e3e6f1;stroke-width:0.10109684" />
                <path
                   d="m 66.942128,31.973726 0.206229,0.08623 0.104807,-0.04885 0.05912,-0.100743 -0.155316,-0.08721 -0.204748,-0.05136 -0.119675,0.04999 0.0018,0.01443 z"
                   id="path76"
                   inkscape:connector-curvature="0"
                   style="opacity:0.7;fill:#e3e6f1;stroke-width:0.10109684" />
                <path
                   d="m 64.276432,37.103892 c -1.799694,-0.652875 -3.553393,-0.154119 -3.916994,1.114005 -0.3636,1.268123 0.800584,2.825401 2.600278,3.478275 1.799696,0.652876 3.553393,0.154119 3.916993,-1.114005 0.363602,-1.268123 -0.800582,-2.825399 -2.600277,-3.478275 z"
                   id="path78"
                   inkscape:connector-curvature="0"
                   style="opacity:0.46835399;fill:url(#d);fill-rule:evenodd;stroke-width:0.10109684" />
                <path
                   d="m 63.470325,35.702793 c -1.020751,2.745981 -1.507274,5.103251 -1.08668,5.26511 0.420593,0.161859 1.589032,-1.932987 2.609783,-4.678967 1.02075,-2.74598 1.507274,-5.103249 1.086681,-5.265109 -0.420595,-0.161858 -1.589033,1.932985 -2.609784,4.678966 z"
                   id="path80"
                   inkscape:connector-curvature="0"
                   style="fill:none;stroke:url(#f);stroke-width:0.10109684" />
                <path
                   d="m 63.971939,31.895793 c -2.389261,-0.885787 -4.104571,0.289832 -3.831255,2.625819 0.273315,2.335985 2.431758,4.947747 4.821018,5.833534 2.389258,0.885786 4.10457,-0.289832 3.831255,-2.625817 -0.273315,-2.335987 -2.43176,-4.947749 -4.821018,-5.833536 z"
                   id="path82"
                   inkscape:connector-curvature="0"
                   style="fill:none;stroke:url(#g);stroke-width:0.10109684" />
              </g>
            </g>
            <path
               style="fill:#ffffff;fill-rule:evenodd;stroke:#f9f9f9;stroke-width:3.31020236;filter:url(#h)"
               inkscape:connector-curvature="0"
               id="path86"
               transform="matrix(0.43526811,0.16505081,-0.15816063,0.41924021,-1525.9142,269.07316)"
               d="m 206.93359,339.08203 c 0,7.01143 -5.96808,12.69531 -13.33007,12.69531 -7.362,0 -13.33008,-5.68388 -13.33008,-12.69531 0,-7.01143 5.96808,-12.69531 13.33008,-12.69531 7.36199,0 13.33007,5.68388 13.33007,12.69531 z" />
            <path
               style="fill:#ffffff;fill-rule:evenodd;stroke:#f9f9f9;stroke-width:3.72397661;filter:url(#h)"
               inkscape:connector-curvature="0"
               id="path88"
               transform="matrix(0.38690512,0.14671171,-0.14058743,0.37265791,-1538.9597,278.48724)"
               d="m 206.93359,339.08203 c 0,7.01143 -5.96808,12.69531 -13.33007,12.69531 -7.362,0 -13.33008,-5.68388 -13.33008,-12.69531 0,-7.01143 5.96808,-12.69531 13.33008,-12.69531 7.36199,0 13.33007,5.68388 13.33007,12.69531 z" />
            <path
               style="fill:#ffffff;fill-rule:evenodd;stroke:#f9f9f9;stroke-width:2.30943179;filter:url(#i)"
               inkscape:connector-curvature="0"
               id="path90"
               transform="matrix(0.62322393,0.23632249,-0.22693941,0.60155362,-1597.4039,269.74558)"
               d="m 206.93359,339.08203 c 0,7.01143 -5.96808,12.69531 -13.33007,12.69531 -7.362,0 -13.33008,-5.68388 -13.33008,-12.69531 0,-7.01143 5.96808,-12.69531 13.33008,-12.69531 7.36199,0 13.33007,5.68388 13.33007,12.69531 z" />
            <path
               style="fill:none;stroke:url(#j);stroke-width:1.51180923"
               inkscape:connector-curvature="0"
               id="path92"
               d="m -1512.4478,483.91286 c 35.4525,-23.78263 65.4964,-41.18571 67.1051,-38.87085 1.6086,2.31486 -25.8273,23.47106 -61.2797,47.2537 -35.4526,23.78264 -65.4965,41.1857 -67.1051,38.87085 -1.6087,-2.31485 25.8271,-23.47105 61.2797,-47.2537 z" />
            <path
               style="fill:#ffffff;fill-rule:evenodd;stroke:#f9f9f9;stroke-width:2.979182;filter:url(#h)"
               inkscape:connector-curvature="0"
               id="path94"
               transform="matrix(0.4836311,0.18338976,-0.17573413,0.4658225,-1506.6415,275.12191)"
               d="m 206.93359,339.08203 c 0,7.01143 -5.96808,12.69531 -13.33007,12.69531 -7.362,0 -13.33008,-5.68388 -13.33008,-12.69531 0,-7.01143 5.96808,-12.69531 13.33008,-12.69531 7.36199,0 13.33007,5.68388 13.33007,12.69531 z" />
            <path
               style="fill:#ffffff;fill-rule:evenodd;stroke:#f9f9f9;stroke-width:2.70834851;filter:url(#h)"
               inkscape:connector-curvature="0"
               id="path96"
               transform="matrix(0.53199438,0.20172885,-0.19330749,0.51240465,-1549.5899,282.27646)"
               d="m 206.93359,339.08203 c 0,7.01143 -5.96808,12.69531 -13.33007,12.69531 -7.362,0 -13.33008,-5.68388 -13.33008,-12.69531 0,-7.01143 5.96808,-12.69531 13.33008,-12.69531 7.36199,0 13.33007,5.68388 13.33007,12.69531 z" />
            <path
               style="opacity:0.7;fill:#e3e6f1;stroke-width:1.51180923"
               inkscape:connector-curvature="0"
               id="path98"
               d="m -1564.2535,555.56349 c 12.3079,-2.70847 7.6313,-5.22533 12.0875,-4.92236 6.8082,0.46284 17.9859,9.99875 17.9859,9.99875 0,0 8.6287,6.6372 13.0834,9.65231 2.4361,1.64884 6.7257,-3.90483 9.4539,-2.77858 5.0728,2.0941 9.173,6.24132 9.173,6.24132 0,0 -7.3418,-0.63295 -9.4895,0.0742 -4.3202,1.4231 -14.6491,-0.61647 -20.4497,-1.76158 -5.8006,-1.14493 -11.4715,-3.56567 -16.9605,-5.7986 -6.2827,-2.55579 -17.4352,-8.72038 -17.4352,-8.72038 0,0 -7.5529,-3.17806 -9.807,-6.24963 -1.9439,-2.64901 -7.0882,-1.95677 -4.7995,-7.87009 1.1372,-2.93808 3.8273,3.06828 7.7097,5.89505 4.3731,3.18416 9.448,6.23935 9.448,6.23935 z" />
            <ellipse
               style="fill:none;stroke:#0b1e46;stroke-width:1.51180613"
               id="ellipse100"
               transform="matrix(0.93503379,0.35455863,-0.35297288,0.93563355,0,0)"
               ry="86.188271"
               rx="93.369171"
               cy="993.50946"
               cx="-1248.3711" />
          </g>
        </g>
      </g>
      <rect
         ry="0.038272414"
         y="273.63385"
         x="-1630.3127"
         height="359.56876"
         width="1354.402"
         id="rect951"
         style="fill:none;fill-rule:evenodd;stroke:url(#linearGradient959);stroke-width:0.26458329px" />
    </g>
  </g>
</svg>
