<?xml version="1.0" encoding="UTF-8" standalone="no"?>
<!-- Created with Inkscape (http://www.inkscape.org/) -->

<svg
   xmlns:osb="http://www.openswatchbook.org/uri/2009/osb"
   xmlns:dc="http://purl.org/dc/elements/1.1/"
   xmlns:cc="http://creativecommons.org/ns#"
   xmlns:rdf="http://www.w3.org/1999/02/22-rdf-syntax-ns#"
   xmlns:svg="http://www.w3.org/2000/svg"
   xmlns="http://www.w3.org/2000/svg"
   xmlns:xlink="http://www.w3.org/1999/xlink"
   xmlns:sodipodi="http://sodipodi.sourceforge.net/DTD/sodipodi-0.dtd"
   xmlns:inkscape="http://www.inkscape.org/namespaces/inkscape"
   width="1200mm"
   height="320mm"
   viewBox="0 0 1200.0001 319.99999"
   version="1.1"
   id="svg7678"
   inkscape:version="0.92.2 5c3e80d, 2017-08-06"
   sodipodi:docname="logo-traductik_EN.svg"
   inkscape:export-filename="/home/fred/Bureau/Images web &amp; marketing/Logo Traduc'tik/logo-traductik2400ppp.png"
   inkscape:export-xdpi="2400.0027"
   inkscape:export-ydpi="2400.0027">
  <defs
     id="defs7672">
    <linearGradient
       id="linearGradient957"
       osb:paint="solid">
      <stop
         style="stop-color:#000000;stop-opacity:0.02079002"
         offset="0"
         id="stop955" />
    </linearGradient>
    <inkscape:perspective
       sodipodi:type="inkscape:persp3d"
       inkscape:vp_x="0 : 0.03259342 : 1"
       inkscape:vp_y="0 : 3.0064441 : 0"
       inkscape:vp_z="0.06409919 : 0.03259342 : 1"
       inkscape:persp3d-origin="0.032049598 : 0.021728948 : 1"
       id="perspective5022" />
    <marker
       inkscape:stockid="Arrow2Send"
       orient="auto"
       refY="0"
       refX="0"
       id="Arrow2Send-61-5-1"
       style="overflow:visible"
       inkscape:isstock="true">
      <path
         inkscape:connector-curvature="0"
         id="path5352-3-7-0"
         style="fill:#f8cd2a;fill-rule:evenodd;stroke:#f8cd2a;stroke-width:0.625;stroke-linejoin:round"
         d="M 8.7185878,4.0337352 -2.2072895,0.01601326 8.7185884,-4.0017078 c -1.7454984,2.3720609 -1.7354408,5.6174519 -6e-7,8.035443 z"
         transform="matrix(-0.3,0,0,-0.3,0.69,0)" />
    </marker>
    <linearGradient
       id="linearGradient4018">
      <stop
         id="stop4020"
         style="stop-color:#ffffff;stop-opacity:0.30000001"
         offset="0" />
      <stop
         id="stop4022"
         style="stop-color:#ffffff;stop-opacity:0"
         offset="1" />
    </linearGradient>
    <linearGradient
       id="linearGradient4024">
      <stop
         id="stop4026"
         offset="0"
         style="stop-color:#ffffff" />
      <stop
         id="stop4034"
         style="stop-color:#ffffff;stop-opacity:0.49803922"
         offset="0.5" />
      <stop
         id="stop4028"
         offset="1"
         style="stop-color:#ffffff;stop-opacity:0" />
    </linearGradient>
    <marker
       id="a"
       orient="auto"
       overflow="visible"
       refX="0"
       refY="0"
       style="overflow:visible"
       transform="translate(-1.213858,-0.79572784)">
      <path
         d="M 8.7185878,4.0337352 -2.2072895,0.01601326 8.7185884,-4.0017078 c -1.7454984,2.3720609 -1.7354408,5.6174519 -6e-7,8.035443 z"
         transform="matrix(-0.3,0,0,-0.3,0.69,0)"
         id="path2"
         inkscape:connector-curvature="0"
         style="fill:#f8cd2a;fill-rule:evenodd;stroke:#f8cd2a;stroke-width:0.625;stroke-linejoin:round" />
    </marker>
    <linearGradient
       id="b"
       gradientTransform="matrix(0.02839443,0.01092716,-0.01074963,0.02891821,58.692085,19.744095)"
       gradientUnits="userSpaceOnUse"
       x1="369"
       x2="369"
       y1="614.86218"
       y2="478.36218">
      <stop
         offset="0"
         stop-color="#fff"
         stop-opacity=".3"
         id="stop5" />
      <stop
         offset="1"
         stop-color="#fff"
         stop-opacity="0"
         id="stop7" />
    </linearGradient>
    <linearGradient
       id="c"
       gradientTransform="matrix(-0.0101113,0.01601823,-0.03835248,-0.01733591,74.030317,32.301502)"
       gradientUnits="userSpaceOnUse"
       spreadMethod="reflect"
       x1="84.270332"
       x2="398.27032"
       y1="158.15402"
       y2="158.15402">
      <stop
         offset="0"
         stop-color="#fff"
         id="stop10" />
      <stop
         offset=".5"
         stop-color="#fff"
         stop-opacity=".498039"
         id="stop12" />
      <stop
         offset="1"
         stop-color="#fff"
         stop-opacity="0"
         id="stop14" />
    </linearGradient>
    <linearGradient
       id="d"
       gradientTransform="matrix(0.00610098,-0.02127825,-0.04425521,-0.01605446,78.007024,50.674023)"
       gradientUnits="userSpaceOnUse"
       x1="149.80469"
       x2="365.625"
       xlink:href="#e"
       y1="360.66406"
       y2="360.66406" />
    <linearGradient
       id="e">
      <stop
         offset="0"
         stop-color="#fff"
         id="stop18" />
      <stop
         offset="1"
         stop-color="#fff"
         stop-opacity="0"
         id="stop20" />
    </linearGradient>
    <linearGradient
       id="f"
       gradientTransform="matrix(-0.05302138,-0.02040446,-0.01029433,0.02769338,78.924775,33.645179)"
       gradientUnits="userSpaceOnUse"
       x1="213.15121"
       x2="242.87743"
       xlink:href="#e"
       y1="252.88338"
       y2="252.88338" />
    <linearGradient
       id="g"
       gradientTransform="matrix(-0.03445507,-0.29448203,-0.02409583,-0.00893322,78.416503,105.53065)"
       gradientUnits="userSpaceOnUse"
       x1="213.27011"
       x2="242.75851"
       xlink:href="#e"
       y1="252.88338"
       y2="252.88338" />
    <filter
       id="h"
       height="1.737821"
       width="1.702686"
       x="-0.35134301"
       y="-0.36891001">
      <feGaussianBlur
         stdDeviation="3.9028595"
         id="feGaussianBlur25" />
    </filter>
    <filter
       id="filter1901"
       height="1.737821"
       width="1.702686"
       x="-0.35134301"
       y="-0.36891001">
      <feGaussianBlur
         stdDeviation="3.9028595"
         id="feGaussianBlur1899" />
    </filter>
    <filter
       id="i"
       height="1.614851"
       width="1.585572"
       x="-0.292786"
       y="-0.30742499">
      <feGaussianBlur
         stdDeviation="3.2523829"
         id="feGaussianBlur28" />
    </filter>
    <linearGradient
       id="j"
       gradientTransform="matrix(-0.24150566,-0.34753167,0.34871621,-0.23392978,-1545.024,626.73227)"
       gradientUnits="userSpaceOnUse"
       x1="210.78125"
       x2="239.90234"
       xlink:href="#e"
       y1="257.83203"
       y2="257.83203" />
    <filter
       id="filter1914"
       height="1.737821"
       width="1.702686"
       x="-0.35134301"
       y="-0.36891001">
      <feGaussianBlur
         stdDeviation="3.9028595"
         id="feGaussianBlur1912" />
    </filter>
    <filter
       id="filter1918"
       height="1.737821"
       width="1.702686"
       x="-0.35134301"
       y="-0.36891001">
      <feGaussianBlur
         stdDeviation="3.9028595"
         id="feGaussianBlur1916" />
    </filter>
    <linearGradient
       inkscape:collect="always"
       xlink:href="#linearGradient957"
       id="linearGradient959"
       x1="-1611.6417"
       y1="-24.875702"
       x2="-126.37589"
       y2="-24.875702"
       gradientUnits="userSpaceOnUse"
       gradientTransform="matrix(0.80792201,0,0,0.73571051,-328.35361,491.63614)" />
  </defs>
  <sodipodi:namedview
     id="base"
     pagecolor="#ffffff"
     bordercolor="#666666"
     borderopacity="1.0"
     inkscape:pageopacity="0.0"
     inkscape:pageshadow="2"
     inkscape:zoom="0.17188994"
     inkscape:cx="2761.1448"
     inkscape:cy="-1192.8642"
     inkscape:document-units="mm"
     inkscape:current-layer="layer1"
     showgrid="false"
     fit-margin-top="0"
     fit-margin-left="0"
     fit-margin-right="0"
     fit-margin-bottom="0"
     inkscape:showpageshadow="false"
     showborder="false"
     inkscape:window-width="1920"
     inkscape:window-height="1176"
     inkscape:window-x="0"
     inkscape:window-y="0"
     inkscape:window-maximized="1"
     objecttolerance="10000"
     viewbox-width="90.2"
     scale-x="1"
     viewbox-y="0"
     inkscape:pagecheckerboard="false"
     units="mm"
     inkscape:object-nodes="false"
     showguides="false" />
  <metadata
     id="metadata7675">
    <rdf:RDF>
      <cc:Work
         rdf:about="">
        <dc:format>image/svg+xml</dc:format>
        <dc:type
           rdf:resource="http://purl.org/dc/dcmitype/StillImage" />
        <dc:title />
      </cc:Work>
    </rdf:RDF>
  </metadata>
  <g
     inkscape:label="Calque 1"
     inkscape:groupmode="layer"
     id="layer1"
     transform="translate(1630.4449,-313.33488)"
     style="opacity:0.96000001">
    <g
       id="g1161">
      <rect
         ry="8.0193491"
         rx="4.0312643e-06"
         y="591.86548"
         x="-1616.3823"
         height="11.341062"
         width="1171.2377"
         id="rect5628-9-75-54-1"
         style="color:#000000;fill:#dd840d;stroke-width:1.921574;stroke-linecap:round;stroke-opacity:0" />
      <rect
         ry="11.321435"
         rx="4.0312648e-06"
         y="603.20654"
         x="-1616.3823"
         height="16.01091"
         width="1171.2377"
         id="rect5628-9-75-5-2-3"
         style="color:#000000;fill:#f8cd2a;stroke-width:1.92157376;stroke-linecap:round;stroke-opacity:0" />
      <g
         aria-label="TRADUC'TIK"
         transform="matrix(9.4737718,0,0,18.515163,-2370.7683,-36.242734)"
         style="font-weight:bold;font-size:15.16280365px;font-family:sans-serif;-inkscape-font-specification:'sans-serif, Bold';letter-spacing:0px;word-spacing:0px;fill:#42673e;stroke-width:0.01773114px"
         id="text5026-8-1">
        <path
           d="m 103.09971,19.842993 h 10.18751 v 2.15448 h -3.66484 v 8.899263 h -2.85043 v -8.899263 h -3.67224 z"
           style="-inkscape-font-specification:'sans-serif, Bold';stroke-width:0.01773113px"
           id="path1043"
           inkscape:connector-curvature="0" />
        <path
           d="m 118.54488,24.744251 q 0.89585,0 1.28084,-0.333167 0.3924,-0.333167 0.3924,-1.09575 0,-0.755178 -0.3924,-1.080942 -0.38499,-0.325763 -1.28084,-0.325763 h -1.19941 v 2.835622 z m -1.19941,1.969387 v 4.183098 h -2.85042 V 19.842993 h 4.35338 q 2.18409,0 3.1984,0.732968 1.02171,0.732967 1.02171,2.317362 0,1.095749 -0.53306,1.799102 -0.52567,0.703353 -1.5918,1.03652 0.58489,0.133266 1.04392,0.607104 0.46644,0.466434 0.94027,1.421513 l 1.54738,3.139174 h -3.03552 l -1.34748,-2.746777 q -0.4072,-0.829216 -0.82921,-1.132768 -0.41461,-0.303553 -1.11056,-0.303553 z"
           style="-inkscape-font-specification:'sans-serif, Bold';stroke-width:0.01773113px"
           id="path1045"
           inkscape:connector-curvature="0" />
        <path
           d="m 132.61295,28.882926 h -4.45703 l -0.70336,2.01381 h -2.86523 l 4.09425,-11.053743 h 3.3983 l 4.09426,11.053743 h -2.86524 z m -3.74628,-2.050828 h 3.02812 l -1.51036,-4.397805 z"
           style="-inkscape-font-specification:'sans-serif, Bold';stroke-width:0.01773113px"
           id="path1047"
           inkscape:connector-curvature="0" />
        <path
           d="m 140.22499,21.997473 v 6.744783 h 1.02171 q 1.74728,0 2.66534,-0.866235 0.92546,-0.866234 0.92546,-2.517262 0,-1.643624 -0.91806,-2.502455 -0.91806,-0.858831 -2.67274,-0.858831 z m -2.85043,-2.15448 h 3.00591 q 2.51726,0 3.74628,0.362782 1.23642,0.355378 2.11746,1.214209 0.77739,0.747775 1.15498,1.725065 0.37759,0.97729 0.37759,2.21371 0,1.251227 -0.37759,2.235921 -0.37759,0.97729 -1.15498,1.725065 -0.88845,0.858831 -2.13227,1.221613 -1.24382,0.355378 -3.73147,0.355378 h -3.00591 z"
           style="-inkscape-font-specification:'sans-serif, Bold';stroke-width:0.01773113px"
           id="path1049"
           inkscape:connector-curvature="0" />
        <path
           d="m 149.70277,19.842993 h 2.85042 v 6.626323 q 0,1.369687 0.44423,1.961984 0.45162,0.584893 1.46593,0.584893 1.02171,0 1.46594,-0.584893 0.45162,-0.592297 0.45162,-1.961984 v -6.626323 h 2.85043 v 6.626323 q 0,2.346977 -1.17719,3.494552 -1.17719,1.147576 -3.5908,1.147576 -2.4062,0 -3.58339,-1.147576 -1.17719,-1.147575 -1.17719,-3.494552 z"
           style="-inkscape-font-specification:'sans-serif, Bold';stroke-width:0.01773113px"
           id="path1051"
           inkscape:connector-curvature="0" />
        <path
           d="m 170.53043,30.289632 q -0.78479,0.407204 -1.63622,0.614508 -0.85143,0.207304 -1.77689,0.207304 -2.76159,0 -4.3756,-1.539972 -1.61401,-1.547376 -1.61401,-4.190502 0,-2.650529 1.61401,-4.190501 1.61401,-1.547376 4.3756,-1.547376 0.92546,0 1.77689,0.207304 0.85143,0.207304 1.63622,0.614508 v 2.287747 q -0.7922,-0.540471 -1.56218,-0.792197 -0.76999,-0.251726 -1.62142,-0.251726 -1.52516,0 -2.3988,0.97729 -0.87364,0.97729 -0.87364,2.694951 0,1.710258 0.87364,2.687548 0.87364,0.97729 2.3988,0.97729 0.85143,0 1.62142,-0.251726 0.76998,-0.251726 1.56218,-0.792198 z"
           style="-inkscape-font-specification:'sans-serif, Bold';stroke-width:0.01773113px"
           id="path1053"
           inkscape:connector-curvature="0" />
        <path
           d="m 174.44801,19.842993 v 4.109061 h -1.75468 v -4.109061 z"
           style="-inkscape-font-specification:'sans-serif, Bold';stroke-width:0.01773113px"
           id="path1055"
           inkscape:connector-curvature="0" />
        <path
           d="m 175.71507,19.842993 h 10.18751 v 2.15448 h -3.66483 v 8.899263 h -2.85043 v -8.899263 h -3.67225 z"
           style="-inkscape-font-specification:'sans-serif, Bold';stroke-width:0.01773113px"
           id="path1057"
           inkscape:connector-curvature="0" />
        <path
           d="m 187.11041,19.842993 h 2.85043 v 11.053743 h -2.85043 z"
           style="-inkscape-font-specification:'sans-serif, Bold';stroke-width:0.01773113px"
           id="path1059"
           inkscape:connector-curvature="0" />
        <path
           d="m 192.50873,19.842993 h 2.85043 v 4.035023 l 4.10906,-4.035023 h 3.30946 l -5.32327,5.234425 5.87115,5.819318 h -3.56859 l -4.39781,-4.353383 v 4.353383 h -2.85043 z"
           style="-inkscape-font-specification:'sans-serif, Bold';stroke-width:0.01773113px"
           id="path1061"
           inkscape:connector-curvature="0" />
      </g>
      <g
         transform="matrix(0.8858265,0,0,0.88930187,-186.15334,70.109206)"
         id="g1830">
        <path
           style="fill:none;stroke:#dd840d;stroke-width:8.00000381;stroke-linecap:round"
           inkscape:connector-curvature="0"
           id="path32"
           d="m -1488.9794,312.98822 c 39.0992,-9.77092 78.4931,0.16565 105.4269,26.59207 26.9338,26.42665 37.984,65.98464 29.573,105.86602" />
        <g
           id="g1791">
          <path
             d="m -1482.5988,341.75416 c 28.0952,-7.02104 56.4022,0.11876 75.7558,19.10812 19.3536,18.9892 27.2939,47.41408 21.2502,76.07134"
             id="path34"
             inkscape:connector-curvature="0"
             style="fill:none;stroke:#dd840d;stroke-width:6.00000286;stroke-linecap:round;stroke-opacity:0.90588199" />
          <path
             d="m -1480.388,368.05863 c 19.6666,-4.91471 39.4816,0.0832 53.0291,13.3757 13.5474,13.29239 19.1057,33.18982 14.8751,53.24993"
             id="path36"
             inkscape:connector-curvature="0"
             style="fill:none;stroke:#dd840d;stroke-width:4.00000191;stroke-linecap:round;stroke-opacity:0.90588199" />
          <g
             id="g1754">
            <path
               style="fill:none;stroke:#f8cd2a;stroke-width:22.14803505;marker-end:url(#a)"
               inkscape:connector-curvature="0"
               id="path38"
               d="m -1570.1377,539.72881 c -49.9642,-47.69867 -41.0022,-127.35099 10.9212,-173.37426 12.6282,-11.19324 27.3486,-20.25208 43.216,-26.71703" />
            <g
               style="stroke-width:0.10109683"
               id="g84"
               transform="matrix(15.064897,0,0,14.84406,-2489.1288,-49.015065)">
              <path
                 style="fill:#183f8e;stroke:#0b1e46;stroke-width:0.10109684"
                 inkscape:connector-curvature="0"
                 id="path40"
                 d="M 70.273445,38.340774 A 6.2261735,5.8833897 26.568184 0 1 58.658398,33.8709 6.2261735,5.8833897 26.568184 1 1 70.273445,38.340774 Z" />
              <path
                 style="fill:url(#b);stroke-width:0.10109684"
                 inkscape:connector-curvature="0"
                 id="path42"
                 d="m 59.423874,34.714123 c -0.449773,2.558498 -1.042093,5.145465 3.056404,6.795568 4.744989,1.062626 5.558452,-0.896599 6.731149,-2.566207 -1.86337,1.382148 -3.908862,2.141105 -6.379452,1.445461 -2.789528,-1.221871 -2.846252,-3.550646 -3.408101,-5.674822 z" />
              <path
                 style="opacity:0.7;fill:#e3e6f1;stroke-width:0.10109684"
                 inkscape:connector-curvature="0"
                 id="path44"
                 d="m 69.965804,37.403164 c 0,0 -0.212672,0.335691 -0.294093,0.352075 -0.08142,0.01638 -0.549948,0.229754 -0.549948,0.229754 l -0.143494,0.18337 -0.192062,0.618003 -0.47437,0.330417 -0.235949,0.39831 -0.320546,0.186812 -0.604115,-0.232486 -0.310726,-0.346239 -0.04318,-0.458012 -0.01673,-0.292748 0.145459,-0.289981 0.248193,-0.262373 -0.02701,-0.535295 0.151302,-0.407026 -0.426409,-0.271463 -0.61898,-0.226275 -0.359098,-0.722742 0.268343,-0.75566 0.504751,-0.378373 0.649459,-0.227249 0.879369,0.302623 0.275809,0.440169 0.934288,0.323759 0.0388,-0.104366 -0.200839,-0.506755 -0.153774,-0.05917 -0.111803,0.06434 c 0,0 -0.0052,-0.121274 -0.02066,-0.07953 -0.01552,0.04174 -0.02459,0.133694 -0.02459,0.133694 l -0.06585,-0.228146 -0.05043,0.135675 -0.07156,-0.136455 -0.06865,-0.417482 -0.109619,-0.03532 -0.08363,0.05014 0.05718,0.234685 0.123325,0.212117 -0.03494,0.05517 -0.06613,-0.09406 -0.04535,0.0443 -0.02046,0.07445 -0.06056,-0.05075 0.04648,-0.105607 -0.129211,-0.468232 -0.378639,-0.166295 -0.185826,0.07257 -0.189214,0.256499 -0.171311,-0.02475 -0.06058,0.06587 -0.290926,-0.208008 0.17626,-0.47417 0.09402,-0.03928 c 0.06206,-0.0041 0.165822,0.03543 0.347807,0.113265 0.118159,0.03527 0.131618,-0.145557 0.131638,-0.354126 l -0.0665,-0.07361 0.09997,-0.01641 0.119644,0.06662 0.368641,0.01838 0.254587,-0.121571 0.285071,-0.164725 0.09847,0.06534 0.160181,-0.06185 0.213622,-0.210502 c 0.197206,0.337894 0.411965,0.68469 0.546169,0.99519 0.602021,1.25901 0.87136,2.470523 0.523066,3.236007 -0.158852,-0.05023 -0.191275,0.04374 -0.321551,0.103525 L 69.74778,37.032707 69.541289,36.50043 69.3913,35.893849 l 0.07676,0.667593 0.103915,0.575129 0.448502,0.172599 z" />
              <path
                 style="opacity:0.7;fill:#e3e6f1;stroke-width:0.10109684"
                 inkscape:connector-curvature="0"
                 id="path46"
                 d="m 64.235635,36.388918 -0.156016,0.230124 -0.327684,0.186382 -0.158466,0.363104 -0.597297,0.216547 -0.205602,0.300324 -0.521127,0.201219 -0.553746,0.09938 -0.262446,0.39005 -0.249154,0.417486 -0.03517,0.410556 -0.355402,-0.181412 -0.06524,-0.203667 c 0,0 -0.09059,-0.32503 -0.006,-0.426374 0.08465,-0.101343 0.389518,-0.92148 0.389518,-0.92148 l 0.266122,-0.589518 c 0,0 0.12757,-0.406599 0.119813,-0.511902 -0.0059,-0.08001 -0.314196,-0.664741 -0.239462,-0.695962 l 0.02573,-0.435343 0.151209,-0.343578 0.327682,-0.186381 -0.361344,-0.607786 0.05196,-0.308656 -0.473731,-0.389347 -0.293659,-0.537097 0.04006,-0.676516 0.324189,-0.745735 c -0.201224,0.155728 -0.282396,0.385716 -0.34955,0.624374 l -0.06711,0.02208 0.06791,-0.284031 0.04595,-0.292486 0.364531,-0.372687 c 0,0 0.810388,-0.31676 0.861426,-0.324619 0.08856,-0.01363 0.118151,-0.166857 0.10333,-0.172561 l 0.967856,-0.289385 0.221788,0.530064 0.02837,0.261439 c 0,0 0.117404,0.05575 0.16088,0.07384 0.102088,0.04248 0.493685,-0.610056 0.454415,-0.648264 l 0.315915,0.26473 0.385091,0.112408 0.172373,0.650883 -0.371487,0.326572 0.0845,0.04017 0.215798,0.09498 -0.122182,0.227361 -0.228043,-0.230915 0.05043,-0.135675 -0.362469,-0.13949 -0.03945,0.139901 0.195092,0.218234 -0.185514,0.262635 -0.228698,-0.195377 -0.341205,0.107283 -0.257819,-0.01571 -0.129286,0.212697 -0.194535,0.151798 -0.374156,0.09461 -0.09826,0.129203 0.0077,0.181911 -0.06333,0.03527 -0.09497,-0.04848 -0.0038,-0.192348 -0.04585,-0.113082 -0.319187,-0.08705 -0.449735,-0.0061 -0.234639,0.327237 0.03099,0.119293 0.2552,0.157858 0.123442,-0.09565 0.322414,0.112146 -0.182896,0.120488 0.06198,0.238582 0.137602,0.136462 -0.135081,0.12696 0.112361,0.305689 0.343121,-0.01112 0.651931,0.238957 0.07875,0.328546 0.330123,0.294057 0.204767,0.293533 0.158866,0.383235 0.360505,0.246102 z" />
              <path
                 style="opacity:0.7;fill:#e3e6f1;stroke-width:0.10109684"
                 inkscape:connector-curvature="0"
                 id="path48"
                 d="m 63.201163,34.119912 a 0.12946887,0.08906342 21.63888 0 1 -0.241647,-0.09299 0.12946887,0.08906342 21.63888 1 1 0.241647,0.09299 z" />
              <path
                 style="fill:url(#c);stroke-width:0.10109684"
                 inkscape:connector-curvature="0"
                 id="path50"
                 d="m 66.814853,30.775015 c 2.418692,1.374641 3.639155,2.842248 2.746357,4.47382 -1.576343,2.05381 -3.724496,1.159698 -5.806249,0.607911 -2.964267,-1.827819 -2.65588,-2.976018 -2.328664,-4.120307 0.988073,-2.016066 3.118869,-1.634456 5.388556,-0.961424 z" />
              <path
                 style="opacity:0.7;fill:#e3e6f1;stroke-width:0.10109684"
                 inkscape:connector-curvature="0"
                 id="path52"
                 d="m 63.975955,33.994578 a 0.02941849,0.03897349 19.520837 1 1 0.003,-0.02097" />
              <path
                 style="opacity:0.7;fill:#e3e6f1;stroke-width:0.10109684"
                 inkscape:connector-curvature="0"
                 id="path54"
                 d="m 62.765734,33.73761 c 0.01429,0.154387 0.192121,0.298664 -0.235245,0.159991 -0.180856,-0.096 -0.15067,-0.3105 -0.391444,-0.568176 0.296945,0.04298 0.428265,0.261052 0.626689,0.408185 z" />
              <path
                 style="opacity:0.7;fill:#e3e6f1;stroke-width:0.10109684"
                 inkscape:connector-curvature="0"
                 id="path56"
                 d="m 64.145976,33.672296 a 0.02942073,0.07794105 20.282183 1 1 0.01022,-0.04033" />
              <path
                 style="opacity:0.7;fill:#e3e6f1;stroke-width:0.10109684"
                 inkscape:connector-curvature="0"
                 id="path58"
                 d="m 63.585406,35.07899 a 0.03532719,0.03338223 26.568179 1 1 0.0011,-0.01852" />
              <path
                 style="opacity:0.7;fill:#e3e6f1;stroke-width:0.10109684"
                 inkscape:connector-curvature="0"
                 id="path60"
                 d="m 63.452314,34.997948 a 0.01176825,0.02783618 20.248361 1 1 0.0034,-0.01448" />
              <path
                 style="opacity:0.7;fill:#e3e6f1;stroke-width:0.10109684"
                 inkscape:connector-curvature="0"
                 id="path62"
                 d="m 65.397098,35.811981 a 0.05887864,0.05563705 26.568181 1 1 0.0019,-0.03087" />
              <path
                 style="opacity:0.7;fill:#e3e6f1;stroke-width:0.10109684"
                 inkscape:connector-curvature="0"
                 id="path64"
                 d="m 65.210977,35.907369 a 0.02942031,0.05567299 20.136753 1 1 0.0062,-0.02927" />
              <path
                 style="opacity:0.7;fill:#e3e6f1;stroke-width:0.10109684"
                 inkscape:connector-curvature="0"
                 id="path66"
                 d="m 65.090761,36.028119 a 0.02353533,0.03340512 19.743567 1 1 0.0028,-0.01788" />
              <path
                 style="opacity:0.7;fill:#e3e6f1;stroke-width:0.10109684"
                 inkscape:connector-curvature="0"
                 id="path68"
                 d="m 69.398667,38.827526 -0.404539,0.14256 -0.342562,0.38114 0.02449,0.271875 0.317928,-0.04467 0.215241,-0.275054 0.166116,-0.210453 z" />
              <path
                 style="opacity:0.7;fill:#e3e6f1;stroke-width:0.10109684"
                 inkscape:connector-curvature="0"
                 id="path70"
                 d="m 68.139973,33.024724 -0.08696,8.39e-4 -0.09365,0.01885 -0.112603,0.01155 -0.04755,-0.06632 0.07583,-0.08746 -0.01371,-0.176794 0.03646,-0.136908 0.01228,-0.09133 -0.07097,-0.06161 0.0918,-0.03328 0.14529,0.05591 -0.02677,0.07203 0.0698,0.239546 0.06723,0.149366 z" />
              <path
                 style="opacity:0.7;fill:#e3e6f1;stroke-width:0.10109684"
                 inkscape:connector-curvature="0"
                 id="path72"
                 d="m 67.722303,32.905154 0.0461,-0.08517 0.01489,-0.117762 -0.07358,-0.03517 -0.155344,0.02941 -0.0528,0.103177 c 0,0 0.07914,0.07847 0.110721,0.09064 0.03159,0.01215 0.109995,0.01488 0.109995,0.01488 z" />
              <path
                 style="opacity:0.7;fill:#e3e6f1;stroke-width:0.10109684"
                 inkscape:connector-curvature="0"
                 id="path74"
                 d="m 67.369977,31.116326 c -0.03609,0.09715 -0.510929,0.187376 -0.510929,0.187376 l -0.607583,-0.05544 -0.296603,0.215173 c 0,0 -0.259746,-0.0588 -0.273858,-0.09853 -0.01411,-0.03973 -0.102493,-0.307012 -0.102493,-0.307012 0,0 -0.273737,-0.201557 -0.228861,-0.23901 0.08094,-0.06754 -0.466148,-0.530966 -0.496574,-0.522063 0.714073,0.07263 1.641073,0.321106 2.516901,0.819504 z" />
              <path
                 style="opacity:0.7;fill:#e3e6f1;stroke-width:0.10109684"
                 inkscape:connector-curvature="0"
                 id="path76"
                 d="m 66.942128,31.973726 0.206229,0.08623 0.104807,-0.04885 0.05912,-0.100743 -0.155316,-0.08721 -0.204748,-0.05136 -0.119675,0.04999 0.0018,0.01443 z" />
              <path
                 style="opacity:0.46835399;fill:url(#d);fill-rule:evenodd;stroke-width:0.10109684"
                 inkscape:connector-curvature="0"
                 id="path78"
                 d="m 64.276432,37.103892 c -1.799694,-0.652875 -3.553393,-0.154119 -3.916994,1.114005 -0.3636,1.268123 0.800584,2.825401 2.600278,3.478275 1.799696,0.652876 3.553393,0.154119 3.916993,-1.114005 0.363602,-1.268123 -0.800582,-2.825399 -2.600277,-3.478275 z" />
              <path
                 style="fill:none;stroke:url(#f);stroke-width:0.10109684"
                 inkscape:connector-curvature="0"
                 id="path80"
                 d="m 63.470325,35.702793 c -1.020751,2.745981 -1.507274,5.103251 -1.08668,5.26511 0.420593,0.161859 1.589032,-1.932987 2.609783,-4.678967 1.02075,-2.74598 1.507274,-5.103249 1.086681,-5.265109 -0.420595,-0.161858 -1.589033,1.932985 -2.609784,4.678966 z" />
              <path
                 style="fill:none;stroke:url(#g);stroke-width:0.10109684"
                 inkscape:connector-curvature="0"
                 id="path82"
                 d="m 63.971939,31.895793 c -2.389261,-0.885787 -4.104571,0.289832 -3.831255,2.625819 0.273315,2.335985 2.431758,4.947747 4.821018,5.833534 2.389258,0.885786 4.10457,-0.289832 3.831255,-2.625817 -0.273315,-2.335987 -2.43176,-4.947749 -4.821018,-5.833536 z" />
            </g>
          </g>
          <path
             d="m 206.93359,339.08203 c 0,7.01143 -5.96808,12.69531 -13.33007,12.69531 -7.362,0 -13.33008,-5.68388 -13.33008,-12.69531 0,-7.01143 5.96808,-12.69531 13.33008,-12.69531 7.36199,0 13.33007,5.68388 13.33007,12.69531 z"
             transform="matrix(0.43526811,0.16505081,-0.15816063,0.41924021,-1525.9142,269.07316)"
             id="path86"
             inkscape:connector-curvature="0"
             style="fill:#ffffff;fill-rule:evenodd;stroke:#f9f9f9;stroke-width:3.31020236;filter:url(#h)" />
          <path
             d="m 206.93359,339.08203 c 0,7.01143 -5.96808,12.69531 -13.33007,12.69531 -7.362,0 -13.33008,-5.68388 -13.33008,-12.69531 0,-7.01143 5.96808,-12.69531 13.33008,-12.69531 7.36199,0 13.33007,5.68388 13.33007,12.69531 z"
             transform="matrix(0.38690512,0.14671171,-0.14058743,0.37265791,-1538.9597,278.48724)"
             id="path88"
             inkscape:connector-curvature="0"
             style="fill:#ffffff;fill-rule:evenodd;stroke:#f9f9f9;stroke-width:3.72397661;filter:url(#h)" />
          <path
             d="m 206.93359,339.08203 c 0,7.01143 -5.96808,12.69531 -13.33007,12.69531 -7.362,0 -13.33008,-5.68388 -13.33008,-12.69531 0,-7.01143 5.96808,-12.69531 13.33008,-12.69531 7.36199,0 13.33007,5.68388 13.33007,12.69531 z"
             transform="matrix(0.62322393,0.23632249,-0.22693941,0.60155362,-1597.4039,269.74558)"
             id="path90"
             inkscape:connector-curvature="0"
             style="fill:#ffffff;fill-rule:evenodd;stroke:#f9f9f9;stroke-width:2.30943179;filter:url(#i)" />
          <path
             d="m -1512.4478,483.91286 c 35.4525,-23.78263 65.4964,-41.18571 67.1051,-38.87085 1.6086,2.31486 -25.8273,23.47106 -61.2797,47.2537 -35.4526,23.78264 -65.4965,41.1857 -67.1051,38.87085 -1.6087,-2.31485 25.8271,-23.47105 61.2797,-47.2537 z"
             id="path92"
             inkscape:connector-curvature="0"
             style="fill:none;stroke:url(#j);stroke-width:1.51180923" />
          <path
             d="m 206.93359,339.08203 c 0,7.01143 -5.96808,12.69531 -13.33007,12.69531 -7.362,0 -13.33008,-5.68388 -13.33008,-12.69531 0,-7.01143 5.96808,-12.69531 13.33008,-12.69531 7.36199,0 13.33007,5.68388 13.33007,12.69531 z"
             transform="matrix(0.4836311,0.18338976,-0.17573413,0.4658225,-1506.6415,275.12191)"
             id="path94"
             inkscape:connector-curvature="0"
             style="fill:#ffffff;fill-rule:evenodd;stroke:#f9f9f9;stroke-width:2.979182;filter:url(#h)" />
          <path
             d="m 206.93359,339.08203 c 0,7.01143 -5.96808,12.69531 -13.33007,12.69531 -7.362,0 -13.33008,-5.68388 -13.33008,-12.69531 0,-7.01143 5.96808,-12.69531 13.33008,-12.69531 7.36199,0 13.33007,5.68388 13.33007,12.69531 z"
             transform="matrix(0.53199438,0.20172885,-0.19330749,0.51240465,-1549.5899,282.27646)"
             id="path96"
             inkscape:connector-curvature="0"
             style="fill:#ffffff;fill-rule:evenodd;stroke:#f9f9f9;stroke-width:2.70834851;filter:url(#h)" />
          <path
             d="m -1564.2535,555.56349 c 12.3079,-2.70847 7.6313,-5.22533 12.0875,-4.92236 6.8082,0.46284 17.9859,9.99875 17.9859,9.99875 0,0 8.6287,6.6372 13.0834,9.65231 2.4361,1.64884 6.7257,-3.90483 9.4539,-2.77858 5.0728,2.0941 9.173,6.24132 9.173,6.24132 0,0 -7.3418,-0.63295 -9.4895,0.0742 -4.3202,1.4231 -14.6491,-0.61647 -20.4497,-1.76158 -5.8006,-1.14493 -11.4715,-3.56567 -16.9605,-5.7986 -6.2827,-2.55579 -17.4352,-8.72038 -17.4352,-8.72038 0,0 -7.5529,-3.17806 -9.807,-6.24963 -1.9439,-2.64901 -7.0882,-1.95677 -4.7995,-7.87009 1.1372,-2.93808 3.8273,3.06828 7.7097,5.89505 4.3731,3.18416 9.448,6.23935 9.448,6.23935 z"
             id="path98"
             inkscape:connector-curvature="0"
             style="opacity:0.7;fill:#e3e6f1;stroke-width:1.51180923" />
          <ellipse
             cx="-1248.3711"
             cy="993.50946"
             rx="93.369171"
             ry="86.188271"
             transform="matrix(0.93503379,0.35455863,-0.35297288,0.93563355,0,0)"
             id="ellipse100"
             style="fill:none;stroke:#0b1e46;stroke-width:1.51180613" />
        </g>
      </g>
      <rect
         ry="0.034035731"
         y="313.4523"
         x="-1630.3275"
         height="319.76517"
         width="1199.7651"
         id="rect951"
         style="fill:none;fill-rule:evenodd;stroke:url(#linearGradient959);stroke-width:0.23483421px" />
      <g
         id="text4612-3"
         style="font-style:italic;font-size:53.86215973px;font-family:'Liberation Serif';-inkscape-font-specification:'Liberation Serif, Italic';letter-spacing:0px;word-spacing:0px;opacity:0.96000001;fill:#183f8e;stroke-width:3.99999976px"
         transform="matrix(0.88204397,0,0,0.9205091,-1085.2663,524.43091)"
         aria-label="Translation and copywriting services since 1992">
        <path
           inkscape:connector-curvature="0"
           id="path2077"
           style="-inkscape-font-specification:'Liberation Serif, Italic'"
           d="m -313.72495,58.658123 0.263,-1.393894 5.70707,-0.710097 5.44408,-30.902362 h -1.34129 q -5.23368,0 -7.73217,0.525998 l -1.68319,5.496675 h -1.76209 l 1.47279,-8.284463 h 28.14087 l -1.47279,8.284463 h -1.78839 l 0.263,-5.496675 q -2.36699,-0.473398 -7.73217,-0.473398 h -1.28869 l -5.44408,30.849762 5.49668,0.710097 -0.263,1.393894 z" />
        <path
           inkscape:connector-curvature="0"
           id="path2079"
           style="-inkscape-font-specification:'Liberation Serif, Italic'"
           d="m -272.27633,33.278736 q 1.31499,0 2.07769,0.210399 l -1.1572,6.469771 h -1.13089 l -0.9994,-3.340085 q -2.10399,0 -4.36578,1.604293 -2.23549,1.604293 -4.10278,4.234281 l -2.81409,16.200728 h -4.36578 l 4.02388,-22.880898 -3.10338,-0.657497 0.2104,-1.183495 h 7.28506 l -0.81529,5.575575 q 1.97249,-2.971886 4.39208,-4.602479 2.44589,-1.630593 4.86548,-1.630593 z" />
        <path
           inkscape:connector-curvature="0"
           id="path2081"
           style="-inkscape-font-specification:'Liberation Serif, Italic'"
           d="m -249.63214,56.817131 2.97189,0.657497 -0.2104,1.183495 h -7.49547 l 0.7627,-4.102782 q -4.44468,4.65508 -8.12666,4.65508 -3.18229,0 -5.12848,-2.34069 -1.91989,-2.34069 -1.91989,-6.443471 0,-4.60248 1.99879,-8.600062 2.02509,-4.023882 5.39148,-6.259372 3.36638,-2.26179 7.31136,-2.26179 3.18229,0 5.99638,1.104595 l 1.18349,-0.894196 h 1.4202 z m -0.76269,-20.17201 q -1.0257,-0.710097 -1.91989,-0.973095 -0.8942,-0.289299 -2.20919,-0.289299 -2.62999,0 -4.83918,1.998791 -2.18289,1.972491 -3.44529,5.338876 -1.26239,3.366385 -1.26239,7.022069 0,2.814087 1.15719,4.49728 1.1572,1.683192 3.15599,1.683192 2.97189,0 6.49607,-3.655683 z" />
        <path
           inkscape:connector-curvature="0"
           id="path2083"
           style="-inkscape-font-specification:'Liberation Serif, Italic'"
           d="m -223.59525,38.985811 q 0,-1.183495 -0.6312,-1.919892 -0.63119,-0.736396 -1.99879,-0.736396 -1.94619,0 -4.26058,1.656892 -2.28809,1.656893 -3.78718,4.102782 l -2.89299,16.568926 h -4.36578 l 4.02388,-22.907198 -3.10338,-0.657497 0.2104,-1.183495 h 7.31136 l -0.71009,5.049578 q 2.20919,-2.840387 4.57618,-4.260581 2.36699,-1.420194 4.65508,-1.420194 2.65628,0 3.99758,1.446494 1.34129,1.420193 1.34129,4.102781 0,0.368199 -0.1052,1.130895 -0.1052,0.762697 -2.86668,16.884525 l 3.44528,0.631197 -0.2104,1.183495 h -7.91626 l 2.68258,-15.306532 q 0.6049,-3.340085 0.6049,-4.36578 z" />
        <path
           inkscape:connector-curvature="0"
           id="path2085"
           style="-inkscape-font-specification:'Liberation Serif, Italic'"
           d="m -198.32107,51.399355 q 0,3.971283 -2.52478,5.891174 -2.52479,1.893592 -7.65327,1.893592 -3.62938,0 -7.36397,-1.630593 l 1.0783,-5.943774 h 1.18349 l 0.4471,3.603084 q 0.6838,0.736397 1.91989,1.314995 1.2624,0.578597 2.84039,0.578597 5.75967,0 5.75967,-4.707679 0,-1.551693 -1.23609,-2.761488 -1.2098,-1.209794 -3.97128,-2.551088 -2.65629,-1.288695 -3.94499,-2.840388 -1.28869,-1.577993 -1.28869,-3.681983 0,-3.471585 2.34069,-5.365176 2.34069,-1.919892 6.49607,-1.919892 2.97189,0 7.04837,0.920496 l -0.9731,5.496676 h -1.23609 l -0.3682,-2.840388 q -1.65689,-1.472793 -4.36578,-1.472793 -2.15659,0 -3.44528,0.999395 -1.2887,0.973096 -1.2887,3.050787 0,1.420193 1.1046,2.498489 1.10459,1.078295 4.18168,2.656288 2.73519,1.420193 3.99758,3.050786 1.26239,1.630593 1.26239,3.760883 z" />
        <path
           inkscape:connector-curvature="0"
           id="path2087"
           style="-inkscape-font-specification:'Liberation Serif, Italic'"
           d="m -188.03781,56.817131 4.12908,0.657497 -0.2104,1.183495 h -8.60006 l 6.23307,-35.557441 -3.39268,-0.631198 0.2104,-1.183494 h 7.86366 z" />
        <path
           inkscape:connector-curvature="0"
           id="path2089"
           style="-inkscape-font-specification:'Liberation Serif, Italic'"
           d="m -159.89695,56.817131 2.97189,0.657497 -0.2104,1.183495 h -7.49546 l 0.76269,-4.102782 q -4.44468,4.65508 -8.12666,4.65508 -3.18229,0 -5.12848,-2.34069 -1.91989,-2.34069 -1.91989,-6.443471 0,-4.60248 1.99879,-8.600062 2.02509,-4.023882 5.39148,-6.259372 3.36638,-2.26179 7.31136,-2.26179 3.18229,0 5.99638,1.104595 l 1.18349,-0.894196 h 1.4202 z m -0.76269,-20.17201 q -1.0257,-0.710097 -1.91989,-0.973095 -0.8942,-0.289299 -2.20919,-0.289299 -2.62999,0 -4.83918,1.998791 -2.18289,1.972491 -3.44529,5.338876 -1.26239,3.366385 -1.26239,7.022069 0,2.814087 1.15719,4.49728 1.1572,1.683192 3.15599,1.683192 2.97189,0 6.49607,-3.655683 z" />
        <path
           inkscape:connector-curvature="0"
           id="path2091"
           style="-inkscape-font-specification:'Liberation Serif, Italic'"
           d="m -146.77329,54.081943 q 0,1.183495 0.5786,1.788392 0.60489,0.578598 1.52539,0.578598 1.91989,0 3.99758,-0.788997 l 0.5523,1.236095 q -3.23489,2.28809 -6.54867,2.28809 -2.07769,0 -3.28749,-1.262395 -1.18349,-1.262394 -1.18349,-3.524184 0,-0.762697 0.1315,-1.788392 0.1578,-1.051995 2.89298,-16.463727 h -3.23488 l 0.2104,-1.183494 3.49788,-1.025696 3.60309,-5.601875 h 1.68319 l -0.9731,5.601875 h 5.65448 l -0.4208,2.20919 h -5.65448 l -2.55108,14.438636 q -0.4734,2.419589 -0.4734,3.497884 z" />
        <path
           inkscape:connector-curvature="0"
           id="path2093"
           style="-inkscape-font-specification:'Liberation Serif, Italic'"
           d="m -131.09857,56.817131 4.12908,0.657497 -0.2104,1.183495 h -8.60006 l 4.02388,-22.880898 -3.39268,-0.657497 0.2104,-1.183495 h 7.86366 z m 5.65447,-30.954962 q 0,1.157195 -0.84159,1.998791 -0.8416,0.841597 -2.02509,0.841597 -1.1572,0 -1.99879,-0.841597 -0.8416,-0.841596 -0.8416,-1.998791 0,-1.183494 0.8416,-2.025091 0.84159,-0.841596 1.99879,-0.841596 1.18349,0 2.02509,0.841596 0.84159,0.841597 0.84159,2.025091 z" />
        <path
           inkscape:connector-curvature="0"
           id="path2095"
           style="-inkscape-font-specification:'Liberation Serif, Italic'"
           d="m -117.60673,49.716163 q 0,3.550484 1.3676,5.444076 1.39389,1.867291 3.86608,1.867291 2.39329,0 4.54988,-1.919891 2.18289,-1.919892 3.44529,-5.233677 1.26239,-3.340085 1.26239,-7.153568 0,-3.629384 -1.39389,-5.496675 -1.3676,-1.893592 -3.94499,-1.893592 -2.39329,0 -4.54988,1.919892 -2.13029,1.919891 -3.36638,5.259976 -1.2361,3.313785 -1.2361,7.206168 z m 4.99698,9.467958 q -4.36578,0 -6.99577,-2.787788 -2.62999,-2.814087 -2.62999,-7.574366 0,-4.234281 1.8147,-7.837365 1.81469,-3.603084 5.02327,-5.654475 3.23489,-2.051391 7.25877,-2.051391 4.36578,0 6.99577,2.814088 2.629989,2.787787 2.629989,7.548066 0,4.234281 -1.814689,7.837365 -1.81469,3.603084 -5.04958,5.654475 -3.20859,2.051391 -7.23247,2.051391 z" />
        <path
           inkscape:connector-curvature="0"
           id="path2097"
           style="-inkscape-font-specification:'Liberation Serif, Italic'"
           d="m -77.052311,38.985811 q 0,-1.183495 -0.631197,-1.919892 -0.631197,-0.736396 -1.998791,-0.736396 -1.946191,0 -4.260581,1.656892 -2.28809,1.656893 -3.787183,4.102782 l -2.892987,16.568926 h -4.36578 l 4.023882,-22.907198 -3.103387,-0.657497 0.210399,-1.183495 h 7.311368 l -0.710097,5.049578 q 2.20919,-2.840387 4.57618,-4.260581 2.366989,-1.420194 4.655079,-1.420194 2.656288,0 3.997582,1.446494 1.341294,1.420193 1.341294,4.102781 0,0.368199 -0.1052,1.130895 -0.105199,0.762697 -2.866687,16.884525 l 3.445285,0.631197 -0.210399,1.183495 h -7.916265 l 2.682588,-15.306532 q 0.604897,-3.340085 0.604897,-4.36578 z" />
        <path
           inkscape:connector-curvature="0"
           id="path2099"
           style="-inkscape-font-specification:'Liberation Serif, Italic'"
           d="m -35.761478,56.817131 2.971887,0.657497 -0.210399,1.183495 h -7.495466 l 0.762696,-4.102782 q -4.44468,4.65508 -8.126664,4.65508 -3.182285,0 -5.128477,-2.34069 -1.919891,-2.34069 -1.919891,-6.443471 0,-4.60248 1.998791,-8.600062 2.025091,-4.023882 5.391476,-6.259372 3.366385,-2.26179 7.311367,-2.26179 3.182286,0 5.996374,1.104595 l 1.183494,-0.894196 h 1.420194 z m -0.762696,-20.17201 q -1.025696,-0.710097 -1.919892,-0.973095 -0.894196,-0.289299 -2.20919,-0.289299 -2.629988,0 -4.839178,1.998791 -2.18289,1.972491 -3.445285,5.338876 -1.262394,3.366385 -1.262394,7.022069 0,2.814087 1.157195,4.49728 1.157195,1.683192 3.155986,1.683192 2.971886,0 6.496071,-3.655683 z" />
        <path
           inkscape:connector-curvature="0"
           id="path2101"
           style="-inkscape-font-specification:'Liberation Serif, Italic'"
           d="m -9.7246127,38.985811 q 0,-1.183495 -0.6311973,-1.919892 -0.631197,-0.736396 -1.998791,-0.736396 -1.946191,0 -4.260581,1.656892 -2.28809,1.656893 -3.787183,4.102782 l -2.892987,16.568926 h -4.365781 l 4.023882,-22.907198 -3.103386,-0.657497 0.210399,-1.183495 h 7.311368 l -0.710097,5.049578 q 2.20919,-2.840387 4.576179,-4.260581 2.36699,-1.420194 4.65508,-1.420194 2.6562877,0 3.9975818,1.446494 1.341294,1.420193 1.341294,4.102781 0,0.368199 -0.1051996,1.130895 -0.1051995,0.762697 -2.8666872,16.884525 l 3.4452847,0.631197 -0.2103991,1.183495 h -7.9162646 l 2.682588,-15.306532 q 0.6048973,-3.340085 0.6048973,-4.36578 z" />
        <path
           inkscape:connector-curvature="0"
           id="path2103"
           style="-inkscape-font-specification:'Liberation Serif, Italic'"
           d="m 17.942875,33.909933 q 0.1052,-1.262394 1.788392,-10.809251 l -4.050182,-0.631198 0.210399,-1.183494 h 8.521162 l -6.311971,35.531141 2.971886,0.657497 -0.210399,1.183495 h -7.495466 l 0.762696,-4.102782 q -4.4446799,4.65508 -8.1266635,4.65508 -3.2348855,0 -5.12847708,-2.41959 -1.89359152,-2.445889 -1.89359152,-6.469771 0,-4.49728 1.9198914,-8.442262 1.9461913,-3.971282 5.3125763,-6.259372 3.366385,-2.31439 7.3902674,-2.31439 2.472189,0 4.33948,0.604897 z m -0.604897,2.735188 q -0.920496,-0.604897 -1.893592,-0.946796 -0.973095,-0.341898 -2.366989,-0.341898 -2.472189,0 -4.6287794,1.946191 -2.1565904,1.946192 -3.4715845,5.365176 -1.3149941,3.418985 -1.3149941,7.074669 0,2.814087 1.1571948,4.49728 1.1571949,1.683192 3.1296861,1.683192 1.4727934,0 3.1822861,-0.946796 1.735792,-0.973095 3.340085,-2.708887 z" />
        <path
           inkscape:connector-curvature="0"
           id="path2105"
           style="-inkscape-font-specification:'Liberation Serif, Italic'"
           d="m 58.102783,54.92354 q -2.130291,1.972491 -4.786579,3.129686 -2.656288,1.130895 -5.049577,1.130895 -4.234281,0 -6.548671,-2.445889 -2.31439,-2.44589 -2.31439,-6.75907 0,-4.57618 1.840992,-8.337063 1.840992,-3.787183 5.233677,-6.075273 3.418984,-2.28809 7.153568,-2.28809 1.867291,0 3.971282,0.394498 2.103991,0.394499 3.471585,0.973096 l -1.183495,6.890569 H 58.444681 L 58.023883,36.96072 q -1.656892,-1.656893 -4.41838,-1.656893 -2.524789,0 -4.733979,1.867292 -2.18289,1.867292 -3.497884,5.207377 -1.314995,3.340085 -1.314995,7.337667 0,6.73277 5.417776,6.73277 3.760883,0 7.837365,-2.629988 z" />
        <path
           inkscape:connector-curvature="0"
           id="path2107"
           style="-inkscape-font-specification:'Liberation Serif, Italic'"
           d="m 67.860056,49.716163 q 0,3.550484 1.367594,5.444076 1.393894,1.867291 3.866082,1.867291 2.39329,0 4.54988,-1.919891 2.18289,-1.919892 3.445285,-5.233677 1.262394,-3.340085 1.262394,-7.153568 0,-3.629384 -1.393894,-5.496675 -1.367593,-1.893592 -3.944982,-1.893592 -2.393289,0 -4.54988,1.919892 -2.13029,1.919891 -3.366385,5.259976 -1.236094,3.313785 -1.236094,7.206168 z m 4.996978,9.467958 q -4.365781,0 -6.995769,-2.787788 -2.629989,-2.814087 -2.629989,-7.574366 0,-4.234281 1.814692,-7.837365 1.814692,-3.603084 5.023278,-5.654475 3.234886,-2.051391 7.258768,-2.051391 4.36578,0 6.995768,2.814088 2.629989,2.787787 2.629989,7.548066 0,4.234281 -1.814692,7.837365 -1.814692,3.603084 -5.049578,5.654475 -3.208585,2.051391 -7.232467,2.051391 z" />
        <path
           inkscape:connector-curvature="0"
           id="path2109"
           style="-inkscape-font-specification:'Liberation Serif, Italic'"
           d="m 94.685917,58.605523 -0.289299,2.36699 -1.262394,7.285067 4.207981,0.631197 -0.210399,1.236095 H 85.402059 l 0.210399,-1.236095 3.182285,-0.631197 5.759675,-32.480355 -2.708888,-0.657497 0.210399,-1.183495 h 6.969469 L 98.5257,37.933815 q 4.60248,-4.655079 8.28446,-4.655079 3.18229,0 5.10218,2.34069 1.94619,2.340689 1.94619,6.443471 0,4.628779 -1.97249,8.626362 -1.97249,3.971282 -5.36518,6.233072 -3.39268,2.26179 -7.363963,2.26179 -1.209794,0 -2.524789,-0.1841 -1.288694,-0.157799 -1.946191,-0.394498 z m 0.631197,-2.761487 q 1.630593,1.262394 4.418381,1.262394 2.603685,0 4.707675,-1.919891 2.13029,-1.919892 3.41899,-5.365177 1.28869,-3.471584 1.28869,-7.074668 0,-2.919287 -1.18349,-4.54988 -1.1572,-1.630592 -3.12969,-1.630592 -1.39389,0 -3.28748,1.025695 -1.893595,1.025695 -3.366389,2.629988 z" />
        <path
           inkscape:connector-curvature="0"
           id="path2111"
           style="-inkscape-font-specification:'Liberation Serif, Italic'"
           d="m 116.85673,33.936233 h 6.73277 l 3.81348,19.251514 6.18048,-10.677752 q 1.68319,-2.945587 1.68319,-5.075877 0,-0.973096 -0.5523,-1.551693 -0.5523,-0.578598 -1.18349,-0.762697 l 0.21039,-1.183495 h 4.99698 q 0.6838,0.604898 0.6838,1.656893 0,2.077691 -2.18289,5.785974 l -10.41475,17.542022 q -2.99819,5.102177 -4.76028,7.232468 -1.7358,2.13029 -3.44529,3.129686 -1.70949,0.999395 -3.70828,0.999395 -2.13029,0 -3.91868,-0.473398 l 0.97309,-5.338876 h 1.1835 l 0.42079,2.524789 q 0.6575,0.604897 2.15659,0.604897 3.55049,0 7.49547,-7.100968 l 1.1835,-2.156591 -4.81288,-22.565299 -2.94559,-0.657497 z" />
        <path
           inkscape:connector-curvature="0"
           id="path2113"
           style="-inkscape-font-specification:'Liberation Serif, Italic'"
           d="m 163.03931,59.184121 h -1.73579 l -3.26119,-16.279628 -8.36336,16.279628 h -1.84099 l -4.49728,-23.406896 -2.68259,-0.657497 0.2104,-1.183495 h 6.44347 l 3.44528,18.594017 8.12667,-15.806229 h 1.97249 l 3.20859,15.911429 5.18107,-10.230654 q 1.4991,-2.998187 1.4991,-4.970678 0,-0.973096 -0.5523,-1.551693 -0.5523,-0.578598 -1.1835,-0.762697 l 0.2104,-1.183495 h 4.99698 q 0.6838,0.604898 0.6838,1.656893 0,1.788392 -2.18289,5.785974 z" />
        <path
           inkscape:connector-curvature="0"
           id="path2115"
           style="-inkscape-font-specification:'Liberation Serif, Italic'"
           d="m 194.38877,33.278736 q 1.315,0 2.07769,0.210399 l -1.15719,6.469771 h -1.1309 l -0.99939,-3.340085 q -2.10399,0 -4.36578,1.604293 -2.23549,1.604293 -4.10279,4.234281 l -2.81408,16.200728 h -4.36578 l 4.02388,-22.880898 -3.10339,-0.657497 0.2104,-1.183495 h 7.28507 l -0.8153,5.575575 q 1.97249,-2.971886 4.39208,-4.602479 2.44589,-1.630593 4.86548,-1.630593 z" />
        <path
           inkscape:connector-curvature="0"
           id="path2117"
           style="-inkscape-font-specification:'Liberation Serif, Italic'"
           d="m 203.96194,56.817131 4.12909,0.657497 -0.2104,1.183495 h -8.60006 l 4.02388,-22.880898 -3.39269,-0.657497 0.2104,-1.183495 h 7.86367 z m 5.65448,-30.954962 q 0,1.157195 -0.8416,1.998791 -0.84159,0.841597 -2.02509,0.841597 -1.15719,0 -1.99879,-0.841597 -0.84159,-0.841596 -0.84159,-1.998791 0,-1.183494 0.84159,-2.025091 0.8416,-0.841596 1.99879,-0.841596 1.1835,0 2.02509,0.841596 0.8416,0.841597 0.8416,2.025091 z" />
        <path
           inkscape:connector-curvature="0"
           id="path2119"
           style="-inkscape-font-specification:'Liberation Serif, Italic'"
           d="m 218.1639,54.081943 q 0,1.183495 0.5786,1.788392 0.6049,0.578598 1.52539,0.578598 1.91989,0 3.99759,-0.788997 l 0.55229,1.236095 q -3.23488,2.28809 -6.54867,2.28809 -2.07769,0 -3.28748,-1.262395 -1.1835,-1.262394 -1.1835,-3.524184 0,-0.762697 0.1315,-1.788392 0.1578,-1.051995 2.89299,-16.463727 h -3.23489 l 0.2104,-1.183494 3.49789,-1.025696 3.60308,-5.601875 h 1.68319 l -0.97309,5.601875 h 5.65447 l -0.4208,2.20919 h -5.65447 l -2.55109,14.438636 q -0.4734,2.419589 -0.4734,3.497884 z" />
        <path
           inkscape:connector-curvature="0"
           id="path2121"
           style="-inkscape-font-specification:'Liberation Serif, Italic'"
           d="m 233.83859,56.817131 4.12908,0.657497 -0.21039,1.183495 h -8.60007 l 4.02389,-22.880898 -3.39269,-0.657497 0.2104,-1.183495 h 7.86366 z m 5.65448,-30.954962 q 0,1.157195 -0.8416,1.998791 -0.84159,0.841597 -2.02509,0.841597 -1.15719,0 -1.99879,-0.841597 -0.8416,-0.841596 -0.8416,-1.998791 0,-1.183494 0.8416,-2.025091 0.8416,-0.841596 1.99879,-0.841596 1.1835,0 2.02509,0.841596 0.8416,0.841597 0.8416,2.025091 z" />
        <path
           inkscape:connector-curvature="0"
           id="path2123"
           style="-inkscape-font-specification:'Liberation Serif, Italic'"
           d="m 260.95379,38.985811 q 0,-1.183495 -0.63119,-1.919892 -0.6312,-0.736396 -1.9988,-0.736396 -1.94619,0 -4.26058,1.656892 -2.28809,1.656893 -3.78718,4.102782 l -2.89299,16.568926 h -4.36578 l 4.02389,-22.907198 -3.10339,-0.657497 0.2104,-1.183495 h 7.31137 l -0.7101,5.049578 q 2.20919,-2.840387 4.57618,-4.260581 2.36699,-1.420194 4.65508,-1.420194 2.65629,0 3.99758,1.446494 1.34129,1.420193 1.34129,4.102781 0,0.368199 -0.1052,1.130895 -0.1052,0.762697 -2.86668,16.884525 l 3.44528,0.631197 -0.2104,1.183495 h -7.91626 l 2.68259,-15.306532 q 0.60489,-3.340085 0.60489,-4.36578 z" />
        <path
           inkscape:connector-curvature="0"
           id="path2125"
           style="-inkscape-font-specification:'Liberation Serif, Italic'"
           d="m 279.02182,55.922935 q 1.4728,0 3.26119,-0.973095 1.81469,-0.973096 3.52418,-2.682588 l 2.89299,-16.253328 q -0.6312,-0.157799 -1.13089,-0.289299 -0.4997,-0.131499 -0.9994,-0.210399 -0.4734,-0.0789 -1.0257,-0.105199 -0.55229,-0.0526 -1.26239,-0.0526 -2.62999,0 -4.89178,1.972491 -2.26179,1.972491 -3.55048,5.312576 -1.2887,3.340086 -1.2887,7.100969 0,2.840387 1.1572,4.52358 1.18349,1.656892 3.31378,1.656892 z m 6.41718,-1.472793 q -1.8936,2.077691 -4.23429,3.418985 -2.31439,1.341294 -4.18168,1.341294 -3.34008,0 -5.25997,-2.34069 -1.9199,-2.366989 -1.9199,-6.443471 0,-4.60248 1.9988,-8.547462 2.02509,-3.971282 5.44407,-6.259372 3.44529,-2.31439 7.46917,-2.31439 1.57799,0 4.10278,0.315599 2.55109,0.289298 4.52358,0.762696 l -4.41838,25.195288 q -0.9731,5.549275 -3.81348,8.047764 -2.81409,2.498489 -8.33707,2.498489 -2.31439,0 -4.78657,-0.552298 -2.47219,-0.525997 -3.97129,-1.314994 l 0.4734,-5.996373 h 1.1835 l 0.94679,3.313785 q 2.13029,2.077691 6.12787,2.077691 3.20859,0 5.10218,-1.683193 1.89359,-1.656892 2.52479,-5.338876 z" />
        <path
           inkscape:connector-curvature="0"
           id="path2127"
           style="-inkscape-font-specification:'Liberation Serif, Italic'"
           d="m 326.6246,51.399355 q 0,3.971283 -2.52479,5.891174 -2.52479,1.893592 -7.65327,1.893592 -3.62938,0 -7.36396,-1.630593 l 1.07829,-5.943774 h 1.1835 l 0.44709,3.603084 q 0.6838,0.736397 1.9199,1.314995 1.26239,0.578597 2.84038,0.578597 5.75968,0 5.75968,-4.707679 0,-1.551693 -1.2361,-2.761488 -1.20979,-1.209794 -3.97128,-2.551088 -2.65629,-1.288695 -3.94498,-2.840388 -1.2887,-1.577993 -1.2887,-3.681983 0,-3.471585 2.34069,-5.365176 2.34069,-1.919892 6.49607,-1.919892 2.97189,0 7.04837,0.920496 l -0.97309,5.496676 h -1.2361 l -0.3682,-2.840388 q -1.65689,-1.472793 -4.36578,-1.472793 -2.15659,0 -3.44528,0.999395 -1.28869,0.973096 -1.28869,3.050787 0,1.420193 1.10459,2.498489 1.1046,1.078295 4.18168,2.656288 2.73519,1.420193 3.99758,3.050786 1.2624,1.630593 1.2624,3.760883 z" />
        <path
           inkscape:connector-curvature="0"
           id="path2129"
           style="-inkscape-font-specification:'Liberation Serif, Italic'"
           d="m 352.05657,38.670212 q 0,3.576784 -4.41838,6.101573 -4.41838,2.524789 -11.86125,3.024486 l -0.1052,1.919892 q 0,3.340085 1.3939,5.049577 1.42019,1.683193 4.18168,1.683193 2.36699,0 4.36578,-0.788997 1.99879,-0.815296 3.73458,-1.840991 l 0.7627,1.104595 q -2.41959,2.051391 -5.12848,3.155986 -2.68259,1.104595 -5.10218,1.104595 -4.26058,0 -6.57497,-2.36699 -2.28809,-2.393289 -2.28809,-6.837969 0,-4.392081 1.841,-8.179264 1.86729,-3.813483 5.15477,-6.154172 3.28749,-2.36699 6.89057,-2.36699 3.23489,0 5.18108,1.499094 1.97249,1.472793 1.97249,3.892382 z m -16.06923,7.469167 q 5.20738,-0.394498 8.33706,-2.445889 3.12969,-2.051391 3.12969,-5.023278 0,-1.472793 -0.8153,-2.419589 -0.78899,-0.946796 -2.31439,-0.946796 -1.84099,0 -3.57678,1.499094 -1.73579,1.499093 -2.99819,4.023882 -1.26239,2.524788 -1.76209,5.312576 z" />
        <path
           inkscape:connector-curvature="0"
           id="path2131"
           style="-inkscape-font-specification:'Liberation Serif, Italic'"
           d="m 372.2812,33.278736 q 1.31499,0 2.07769,0.210399 l -1.1572,6.469771 h -1.13089 l -0.9994,-3.340085 q -2.10399,0 -4.36578,1.604293 -2.23549,1.604293 -4.10278,4.234281 l -2.81409,16.200728 h -4.36578 l 4.02388,-22.880898 -3.10338,-0.657497 0.2104,-1.183495 h 7.28506 l -0.81529,5.575575 q 1.97249,-2.971886 4.39208,-4.602479 2.44589,-1.630593 4.86548,-1.630593 z" />
        <path
           inkscape:connector-curvature="0"
           id="path2133"
           style="-inkscape-font-specification:'Liberation Serif, Italic'"
           d="m 393.92599,37.434118 q 0,-0.973096 -0.5523,-1.551693 -0.5523,-0.578598 -1.1835,-0.762697 l 0.2104,-1.183495 h 4.99698 q 0.6838,0.604898 0.6838,1.656893 0,2.31439 -2.18289,5.785974 l -11.12485,17.805021 h -1.91989 l -4.97068,-23.406896 -2.97189,-0.657497 0.2367,-1.183495 h 6.73277 l 3.81348,19.251514 6.54867,-10.677752 q 1.6832,-2.735188 1.6832,-5.075877 z" />
        <path
           inkscape:connector-curvature="0"
           id="path2135"
           style="-inkscape-font-specification:'Liberation Serif, Italic'"
           d="m 405.73465,56.817131 4.12908,0.657497 -0.2104,1.183495 h -8.60006 l 4.02388,-22.880898 -3.39268,-0.657497 0.2104,-1.183495 h 7.86366 z m 5.65447,-30.954962 q 0,1.157195 -0.84159,1.998791 -0.8416,0.841597 -2.02509,0.841597 -1.1572,0 -1.99879,-0.841597 -0.8416,-0.841596 -0.8416,-1.998791 0,-1.183494 0.8416,-2.025091 0.84159,-0.841596 1.99879,-0.841596 1.18349,0 2.02509,0.841596 0.84159,0.841597 0.84159,2.025091 z" />
        <path
           inkscape:connector-curvature="0"
           id="path2137"
           style="-inkscape-font-specification:'Liberation Serif, Italic'"
           d="m 433.34949,54.92354 q -2.13029,1.972491 -4.78658,3.129686 -2.65629,1.130895 -5.04958,1.130895 -4.23428,0 -6.54867,-2.445889 -2.31439,-2.44589 -2.31439,-6.75907 0,-4.57618 1.84099,-8.337063 1.84099,-3.787183 5.23368,-6.075273 3.41898,-2.28809 7.15357,-2.28809 1.86729,0 3.97128,0.394498 2.10399,0.394499 3.47158,0.973096 l -1.18349,6.890569 h -1.44649 l -0.4208,-4.576179 q -1.6569,-1.656893 -4.41838,-1.656893 -2.52479,0 -4.73398,1.867292 -2.18289,1.867292 -3.49789,5.207377 -1.31499,3.340085 -1.31499,7.337667 0,6.73277 5.41778,6.73277 3.76088,0 7.83736,-2.629988 z" />
        <path
           inkscape:connector-curvature="0"
           id="path2139"
           style="-inkscape-font-specification:'Liberation Serif, Italic'"
           d="m 459.57049,38.670212 q 0,3.576784 -4.41838,6.101573 -4.41838,2.524789 -11.86125,3.024486 l -0.1052,1.919892 q 0,3.340085 1.39389,5.049577 1.4202,1.683193 4.18168,1.683193 2.36699,0 4.36579,-0.788997 1.99879,-0.815296 3.73458,-1.840991 l 0.7627,1.104595 q -2.41959,2.051391 -5.12848,3.155986 -2.68259,1.104595 -5.10218,1.104595 -4.26058,0 -6.57497,-2.36699 -2.28809,-2.393289 -2.28809,-6.837969 0,-4.392081 1.84099,-8.179264 1.86729,-3.813483 5.15478,-6.154172 3.28748,-2.36699 6.89057,-2.36699 3.23488,0 5.18108,1.499094 1.97249,1.472793 1.97249,3.892382 z m -16.06923,7.469167 q 5.20737,-0.394498 8.33706,-2.445889 3.12969,-2.051391 3.12969,-5.023278 0,-1.472793 -0.8153,-2.419589 -0.789,-0.946796 -2.31439,-0.946796 -1.84099,0 -3.57678,1.499094 -1.7358,1.499093 -2.99819,4.023882 -1.26239,2.524788 -1.76209,5.312576 z" />
        <path
           inkscape:connector-curvature="0"
           id="path2141"
           style="-inkscape-font-specification:'Liberation Serif, Italic'"
           d="m 478.95352,51.399355 q 0,3.971283 -2.52479,5.891174 -2.52479,1.893592 -7.65327,1.893592 -3.62938,0 -7.36397,-1.630593 l 1.0783,-5.943774 h 1.18349 l 0.4471,3.603084 q 0.6838,0.736397 1.91989,1.314995 1.2624,0.578597 2.84039,0.578597 5.75968,0 5.75968,-4.707679 0,-1.551693 -1.2361,-2.761488 -1.20979,-1.209794 -3.97128,-2.551088 -2.65629,-1.288695 -3.94498,-2.840388 -1.2887,-1.577993 -1.2887,-3.681983 0,-3.471585 2.34069,-5.365176 2.34069,-1.919892 6.49607,-1.919892 2.97189,0 7.04837,0.920496 l -0.97309,5.496676 h -1.2361 l -0.3682,-2.840388 q -1.65689,-1.472793 -4.36578,-1.472793 -2.15659,0 -3.44528,0.999395 -1.2887,0.973096 -1.2887,3.050787 0,1.420193 1.1046,2.498489 1.10459,1.078295 4.18168,2.656288 2.73519,1.420193 3.99758,3.050786 1.2624,1.630593 1.2624,3.760883 z" />
        <path
           inkscape:connector-curvature="0"
           id="path2143"
           style="-inkscape-font-specification:'Liberation Serif, Italic'"
           d="m 513.35372,51.399355 q 0,3.971283 -2.52478,5.891174 -2.52479,1.893592 -7.65327,1.893592 -3.62938,0 -7.36397,-1.630593 l 1.0783,-5.943774 h 1.18349 l 0.4471,3.603084 q 0.6838,0.736397 1.91989,1.314995 1.2624,0.578597 2.84039,0.578597 5.75967,0 5.75967,-4.707679 0,-1.551693 -1.23609,-2.761488 -1.2098,-1.209794 -3.97128,-2.551088 -2.65629,-1.288695 -3.94499,-2.840388 -1.28869,-1.577993 -1.28869,-3.681983 0,-3.471585 2.34069,-5.365176 2.34069,-1.919892 6.49607,-1.919892 2.97189,0 7.04837,0.920496 l -0.9731,5.496676 h -1.23609 l -0.3682,-2.840388 q -1.65689,-1.472793 -4.36578,-1.472793 -2.15659,0 -3.44528,0.999395 -1.2887,0.973096 -1.2887,3.050787 0,1.420193 1.1046,2.498489 1.10459,1.078295 4.18168,2.656288 2.73519,1.420193 3.99758,3.050786 1.26239,1.630593 1.26239,3.760883 z" />
        <path
           inkscape:connector-curvature="0"
           id="path2145"
           style="-inkscape-font-specification:'Liberation Serif, Italic'"
           d="m 523.76852,56.817131 4.12909,0.657497 -0.2104,1.183495 h -8.60006 l 4.02388,-22.880898 -3.39269,-0.657497 0.2104,-1.183495 h 7.86367 z M 529.423,25.862169 q 0,1.157195 -0.8416,1.998791 -0.84159,0.841597 -2.02509,0.841597 -1.15719,0 -1.99879,-0.841597 -0.8416,-0.841596 -0.8416,-1.998791 0,-1.183494 0.8416,-2.025091 0.8416,-0.841596 1.99879,-0.841596 1.1835,0 2.02509,0.841596 0.8416,0.841597 0.8416,2.025091 z" />
        <path
           inkscape:connector-curvature="0"
           id="path2147"
           style="-inkscape-font-specification:'Liberation Serif, Italic'"
           d="m 550.88366,38.985811 q 0,-1.183495 -0.63119,-1.919892 -0.6312,-0.736396 -1.99879,-0.736396 -1.9462,0 -4.26059,1.656892 -2.28809,1.656893 -3.78718,4.102782 l -2.89299,16.568926 h -4.36578 l 4.02389,-22.907198 -3.10339,-0.657497 0.2104,-1.183495 h 7.31137 l -0.7101,5.049578 q 2.20919,-2.840387 4.57618,-4.260581 2.36699,-1.420194 4.65508,-1.420194 2.65629,0 3.99758,1.446494 1.34129,1.420193 1.34129,4.102781 0,0.368199 -0.1052,1.130895 -0.10519,0.762697 -2.86668,16.884525 l 3.44528,0.631197 -0.2104,1.183495 h -7.91626 l 2.68259,-15.306532 q 0.60489,-3.340085 0.60489,-4.36578 z" />
        <path
           inkscape:connector-curvature="0"
           id="path2149"
           style="-inkscape-font-specification:'Liberation Serif, Italic'"
           d="m 578.31445,54.92354 q -2.13029,1.972491 -4.78658,3.129686 -2.65628,1.130895 -5.04957,1.130895 -4.23428,0 -6.54867,-2.445889 -2.31439,-2.44589 -2.31439,-6.75907 0,-4.57618 1.84099,-8.337063 1.84099,-3.787183 5.23367,-6.075273 3.41899,-2.28809 7.15357,-2.28809 1.86729,0 3.97128,0.394498 2.104,0.394499 3.47159,0.973096 l -1.1835,6.890569 h -1.44649 l -0.4208,-4.576179 q -1.65689,-1.656893 -4.41838,-1.656893 -2.52479,0 -4.73398,1.867292 -2.18289,1.867292 -3.49788,5.207377 -1.31499,3.340085 -1.31499,7.337667 0,6.73277 5.41777,6.73277 3.76088,0 7.83737,-2.629988 z" />
        <path
           inkscape:connector-curvature="0"
           id="path2151"
           style="-inkscape-font-specification:'Liberation Serif, Italic'"
           d="m 604.53545,38.670212 q 0,3.576784 -4.41838,6.101573 -4.41838,2.524789 -11.86125,3.024486 l -0.10519,1.919892 q 0,3.340085 1.39389,5.049577 1.42019,1.683193 4.18168,1.683193 2.36699,0 4.36578,-0.788997 1.99879,-0.815296 3.73458,-1.840991 l 0.7627,1.104595 q -2.41959,2.051391 -5.12848,3.155986 -2.68258,1.104595 -5.10217,1.104595 -4.26058,0 -6.57497,-2.36699 -2.28809,-2.393289 -2.28809,-6.837969 0,-4.392081 1.84099,-8.179264 1.86729,-3.813483 5.15477,-6.154172 3.28749,-2.36699 6.89057,-2.36699 3.23489,0 5.18108,1.499094 1.97249,1.472793 1.97249,3.892382 z m -16.06923,7.469167 q 5.20738,-0.394498 8.33707,-2.445889 3.12968,-2.051391 3.12968,-5.023278 0,-1.472793 -0.81529,-2.419589 -0.789,-0.946796 -2.31439,-0.946796 -1.84099,0 -3.57679,1.499094 -1.73579,1.499093 -2.99818,4.023882 -1.2624,2.524788 -1.7621,5.312576 z" />
        <path
           inkscape:connector-curvature="0"
           id="path2153"
           style="-inkscape-font-specification:'Liberation Serif, Italic'"
           d="m 633.22862,56.554132 7.10096,0.710097 -0.26299,1.393894 h -18.96222 l 0.263,-1.393894 7.33767,-0.710097 5.07587,-28.772071 -7.57436,2.551088 0.263,-1.393893 11.30895,-5.838574 h 1.36759 z" />
        <path
           inkscape:connector-curvature="0"
           id="path2155"
           style="-inkscape-font-specification:'Liberation Serif, Italic'"
           d="m 661.8166,22.995482 q 4.97068,0 7.65327,3.182286 2.70888,3.182286 2.70888,9.073459 0,6.706471 -2.18289,12.255746 -2.18289,5.549275 -5.89117,8.626361 -3.68198,3.050787 -8.10036,3.050787 -4.76028,0 -8.31077,-1.420194 l 1.0257,-5.812274 h 1.73579 l 0.2893,3.681984 q 0.8942,0.525997 2.26179,0.946795 1.39389,0.394499 2.89299,0.394499 4.23428,0 7.10096,-3.997583 2.86669,-3.997582 3.91869,-10.914451 -2.15659,1.262394 -4.39208,1.919891 -2.23549,0.657498 -4.05019,0.657498 -4.20798,0 -6.62757,-2.36699 -2.41958,-2.366989 -2.41958,-6.522371 0,-3.813483 1.49909,-6.73277 1.49909,-2.919287 4.31318,-4.47098 2.81409,-1.551693 6.57497,-1.551693 z m 5.70707,11.33525 q 0,-4.418381 -1.47279,-6.83797 -1.47279,-2.419589 -4.28688,-2.419589 -3.57678,0 -5.52298,2.787787 -1.91989,2.787788 -1.91989,7.758466 0,3.313785 1.4465,4.918078 1.47279,1.577993 4.05018,1.577993 3.60308,0 7.33767,-1.604293 0.36819,-2.998187 0.36819,-6.180472 z" />
        <path
           inkscape:connector-curvature="0"
           id="path2157"
           style="-inkscape-font-specification:'Liberation Serif, Italic'"
           d="m 688.74769,22.995482 q 4.97068,0 7.65327,3.182286 2.70889,3.182286 2.70889,9.073459 0,6.706471 -2.1829,12.255746 -2.18289,5.549275 -5.89117,8.626361 -3.68198,3.050787 -8.10036,3.050787 -4.76028,0 -8.31077,-1.420194 l 1.0257,-5.812274 h 1.73579 l 0.2893,3.681984 q 0.8942,0.525997 2.26179,0.946795 1.39389,0.394499 2.89299,0.394499 4.23428,0 7.10097,-3.997583 2.86668,-3.997582 3.91868,-10.914451 -2.15659,1.262394 -4.39208,1.919891 -2.23549,0.657498 -4.05018,0.657498 -4.20798,0 -6.62757,-2.36699 -2.41959,-2.366989 -2.41959,-6.522371 0,-3.813483 1.49909,-6.73277 1.49909,-2.919287 4.31318,-4.47098 2.81409,-1.551693 6.57497,-1.551693 z m 5.70708,11.33525 q 0,-4.418381 -1.4728,-6.83797 -1.47279,-2.419589 -4.28688,-2.419589 -3.57678,0 -5.52297,2.787787 -1.9199,2.787788 -1.9199,7.758466 0,3.313785 1.4465,4.918078 1.47279,1.577993 4.05018,1.577993 3.60308,0 7.33767,-1.604293 0.3682,-2.998187 0.3682,-6.180472 z" />
        <path
           inkscape:connector-curvature="0"
           id="path2159"
           style="-inkscape-font-specification:'Liberation Serif, Italic'"
           d="m 721.5699,58.658123 h -21.56591 l 0.6838,-3.866083 5.57557,-4.076482 q 5.78598,-4.076481 8.86306,-6.995768 3.07709,-2.945587 4.54988,-6.154173 1.4991,-3.234885 1.4991,-6.969469 0,-2.814087 -1.5254,-4.102782 -1.52539,-1.288694 -4.47098,-1.288694 -1.44649,0 -3.05078,0.420798 -1.578,0.394499 -2.65629,0.973096 l -1.68319,4.313181 h -1.7358 l 1.1835,-6.78537 q 5.02328,-1.130895 8.33706,-1.130895 4.89178,0 7.52177,1.998791 2.62999,1.998791 2.62999,5.601875 0,3.445285 -1.6306,6.627571 -1.63059,3.182285 -4.97067,6.233072 -3.31379,3.024486 -9.20496,7.153568 l -5.57558,3.997582 h 17.93652 z" />
      </g>
    </g>
  </g>
</svg>
